<?xml version="1.0" encoding="utf-8"?>
<!-- Generator: Adobe Illustrator 25.4.1, SVG Export Plug-In . SVG Version: 6.00 Build 0)  -->
<svg version="1.1" xmlns="http://www.w3.org/2000/svg" xmlns:xlink="http://www.w3.org/1999/xlink" x="0px" y="0px"
	 viewBox="0 0 510 510" style="enable-background:new 0 0 510 510;" xml:space="preserve">
<style type="text/css">
	.st0{fill:url(#SVGID_1_);}
	.st1{fill:#FFFFFF;}
</style>
<g id="Layer_2">
	<g>
		
			<linearGradient id="SVGID_1_" gradientUnits="userSpaceOnUse" x1="-91.0003" y1="-20.2666" x2="537.3544" y2="482.9859" gradientTransform="matrix(1 0 0 -1 0 512)">
			<stop  offset="0" style="stop-color:#80D4F7"/>
			<stop  offset="0.4368" style="stop-color:#1B75BC"/>
			<stop  offset="1" style="stop-color:#172D55"/>
		</linearGradient>
		<path class="st0" d="M255,7.5C119,7.5,7.9,118.6,7.9,255.4c0,136,111.1,247.1,247.1,247.1s247.9-111.1,247.9-247.1
			C502.9,118.6,391.9,7.5,255,7.5z"/>
	</g>
</g>
<g id="Layer_1">
	<g>
		<path class="st1" d="M242.2,295.8c-13.2-42.9-54-180-62.8-179.7c-13.7,0.5-123.9,190.4-123.9,190.4c23.4,4.5,39.1-13.5,39.1-13.5
			l28.7-55.1l-24,53.3c22.2,6.8,33.2-12,33.2-12l20.4-52.8l-16.5,51.2c22.5,12.5,30.6-11,30.6-11l20.9-52.2l38.2,86.3
			C230.4,298.1,235.7,296.6,242.2,295.8z"/>
		<path class="st1" d="M268.6,295.8c13.2-42.9,54-180,62.8-179.7c13.7,0.5,123.9,190.4,123.9,190.4c-23.4,4.5-39.1-13.5-39.1-13.5
			l-28.7-55.1l24,53.3c-22.2,6.8-33.2-12-33.2-12L358,226.3l16.5,51.2c-22.5,12.5-30.6-11-30.6-11L323,214.3l-38.2,86.3
			C280.4,298.1,275.1,296.6,268.6,295.8z"/>
	</g>
	<g>
		<g>
			<path class="st1" d="M293.9,341.6c0-30.2-9.9-40.1-38.5-40.1h0h0c-28.6,0-38.5,9.9-38.5,40.1c0,30.2,38.1,49.1,38.5,49.3
				c0,0,0,0,0,0l0,0l0,0c0,0,0,0,0,0C255.8,390.7,293.9,371.8,293.9,341.6z M255.8,380.3c-0.1,0-0.3,0-0.3,0.1v0c0,0,0,0-0.1,0
				c0,0,0,0,0,0c0,0,0,0,0,0c0,0-0.1,0-0.1,0v0c-0.1,0-0.2,0-0.3-0.1c-1.7-0.3-8.2-1.7-14.9-7c-7.9-6.2-24.4-33.2-14.3-48.7
				c3.6-5.4,8.3-7.2,13-7.1c7.7,0.1,15.1,5,16.4,5.9c0.1,0,0.1-0.1,0.2-0.2c0.1,0.1,0.2,0.1,0.2,0.2c1.3-0.9,8.7-5.8,16.4-5.9
				c4.7,0,9.5,1.7,13,7.1c10.1,15.4-6.4,42.5-14.3,48.7C264,378.6,257.6,380,255.8,380.3z"/>
			<g>
				<polygon class="st1" points="242.6,335.9 246.6,363.2 236,337.7 				"/>
				<polygon class="st1" points="268.3,335.9 264.3,363.2 274.9,337.7 				"/>
			</g>
		</g>
		<g>
			<path class="st1" d="M212.4,354.1l-52.7,18.4c0,0,4,7.3,14.2,8.3l21.4-8.7l-15.6,11.4c0,0,4.3,6.6,13.7,5.2l16.3-11.2l-11.3,12.7
				c0,0,8.3,7,19.3,4.6l6.1-10.4l-3.2,10.9c17.2,6.5,33.5,2.9,33.6,2.9C247.9,394.7,220.3,378.7,212.4,354.1z"/>
			<g>
				<path class="st1" d="M298.4,354.1l52.7,18.4c0,0-4,7.3-14.2,8.3l-21.4-8.7l15.6,11.4c0,0-4.3,6.6-13.7,5.2L301,377.4l11.3,12.7
					c0,0-8.3,7-19.3,4.6l-6.1-10.4l3.2,10.9c-17.2,6.5-33.5,2.9-33.6,2.9C262.9,394.7,290.5,378.7,298.4,354.1z"/>
			</g>
		</g>
	</g>
</g>
</svg>
