<svg width="58" height="58" viewBox="0 0 58 58" fill="none" xmlns="http://www.w3.org/2000/svg">
<path d="M28.9496 0C13.0122 0 0 13.0122 0 29.0504C0 44.9878 13.0122 58 28.9496 58C44.887 58 58 44.9878 58 29.0504C58 13.0122 44.9878 0 28.9496 0Z" fill="url(#paint0_linear)"/>
<path d="M43.3739 26.5287C43.9791 25.1165 43.7774 23.6035 42.8696 22.393L39.9444 18.4591C39.3391 17.5513 38.2296 17.2487 37.12 17.5513L33.6905 18.8626C33.0852 18.8626 31.2696 17.8539 28.9496 18.2574C26.7305 17.9548 24.8139 18.8626 24.2087 18.8626L20.7791 17.5513C19.7705 17.2487 18.6609 17.5513 17.9548 18.4591L15.1304 22.393C14.2226 23.6035 14.0209 25.2174 14.6261 26.5287C15.7357 29.2522 17.4505 30.9669 19.8713 32.8835C21.0818 33.7913 22.6957 33.6904 23.7044 32.5808C23.9061 32.2782 24.1078 32.0765 24.4105 31.673C24.5113 31.5722 24.5113 31.3704 24.4105 31.2695L24.3096 31.1687C23.7044 30.6643 23.4018 29.8574 23.4018 29.1513V28.4452L22.7965 26.7304C22.5948 26.2261 22.5948 25.7217 22.5948 25.2174L22.8974 23.0991L21.8887 21.3843C21.7878 21.1826 21.8887 20.9808 21.9896 20.88C22.1913 20.7791 22.3931 20.88 22.4939 20.9808L23.6035 22.7965C23.6035 22.8974 23.7044 22.9982 23.6035 22.9982L23.2 25.2174C23.0991 25.6208 23.2 26.0243 23.3009 26.4278L24.007 28.1426V28.2435V28.9495C24.007 29.5548 24.3096 30.0591 24.7131 30.4626L25.0157 30.6643C25.2174 30.8661 25.1165 31.0678 25.0157 31.2695C24.9148 31.3704 24.8139 31.4713 24.8139 31.673V32.7826C24.8139 33.3878 25.1165 33.993 25.52 34.3965C26.1252 35.0017 26.5287 35.8087 26.5287 36.6156C26.8313 42.0626 32.6818 43.4748 34.0939 39.44C34.0939 39.3391 34.0939 39.1374 33.8922 39.1374C33.6904 39.0365 33.3878 38.9356 33.287 38.7339C33.1861 38.633 32.9844 38.633 32.8835 38.7339C32.7826 38.9356 32.8835 38.7339 32.8835 38.7339C31.6731 39.1374 31.3705 38.1287 31.4713 36.7165C31.5722 35.9095 31.8748 35.1026 32.48 34.4974L32.6818 34.2956C33.0852 33.8921 33.3878 33.2869 33.3878 32.6817V31.5722C33.3878 31.4713 33.287 31.2695 33.1861 31.1687C32.9844 31.0678 32.9844 30.7652 33.1861 30.5635L33.4887 30.3617C33.8922 29.9582 34.1948 29.4539 34.1948 28.8487V28.1426V28.0417L34.9009 26.3269C35.0018 25.9235 35.1026 25.52 35.0018 25.1165L34.5983 22.8974C34.5983 22.7965 34.5983 22.6956 34.5983 22.6956L35.7078 20.88C35.8087 20.6782 36.0105 20.6782 36.2122 20.7791C36.4139 20.88 36.4139 21.0817 36.3131 21.2835L35.3044 22.9982L35.607 25.1165C35.7078 25.6208 35.607 26.1252 35.4052 26.6295L34.8 28.3443V29.0504C34.8 29.8574 34.4974 30.5635 33.8922 31.0678C33.7913 31.0678 33.7913 31.1687 33.7913 31.1687C33.6905 31.2695 33.6905 31.4713 33.7913 31.5722C33.9931 31.8748 34.1948 32.1774 34.4974 32.48C35.5061 33.5895 37.12 33.7913 38.3305 32.7826C40.5496 30.9669 42.2644 29.2522 43.3739 26.5287Z" fill="white"/>
<defs>
<linearGradient id="paint0_linear" x1="48.1305" y1="9.86928" x2="7.29428" y2="50.7055" gradientUnits="userSpaceOnUse">
<stop stop-color="#478FCC"/>
<stop offset="1" stop-color="#00579B"/>
</linearGradient>
</defs>
</svg>
