<svg width="58" height="58" viewBox="0 0 58 58" fill="none" xmlns="http://www.w3.org/2000/svg">
<path d="M28.9496 0C13.0122 0 0 13.0122 0 29.0504C0 44.9878 13.0122 58 28.9496 58C44.887 58 58 44.9878 58 29.0504C58 13.0122 44.9878 0 28.9496 0Z" fill="url(#paint0_linear)"/>
<path d="M15.8365 11.1965C16.6434 11.2974 17.4504 11.6 18.1565 12.0034C18.5599 12.2052 19.0643 12.5078 19.4678 12.7095C19.6695 12.8104 19.7704 13.0121 19.9721 13.113C20.1739 13.2139 20.2747 13.4156 20.4765 13.5165C20.5773 13.6174 20.6782 13.6174 20.7791 13.6174C21.2834 13.6174 21.8886 13.7182 22.393 13.7182C22.5947 13.7182 22.7965 13.8191 22.9982 13.8191C23.6034 13.92 24.3095 14.1217 24.9147 14.3234C25.2173 14.4243 25.4191 14.5252 25.7217 14.7269C27.033 15.5339 28.2434 16.3408 29.4539 17.2487C31.2695 18.7617 32.8834 20.4765 34.1947 22.393C34.4973 22.7965 34.6991 23.2 35.0017 23.6034C35.4052 24.2087 35.6069 24.8139 35.9095 25.52C36.6156 27.3356 37.4226 29.0504 38.3304 30.8661C38.5321 31.1687 38.633 31.5721 38.8347 31.8748C38.9356 32.1774 39.1373 32.48 39.3391 32.7826C39.44 32.9843 39.6417 33.0852 39.8434 33.0852C40.6504 33.3878 41.3565 33.7913 42.1634 34.0939C42.7686 34.2956 43.273 34.6991 43.7773 35.1026C44.8869 35.9095 45.9965 36.7165 47.0052 37.6243C47.2069 37.8261 47.4086 38.0278 47.5095 38.2295C47.7113 38.5321 47.913 38.8348 48.2156 39.0365C48.2156 39.0365 48.3165 39.2382 48.2156 39.3391C48.2156 39.3391 48.2156 39.3391 48.1147 39.3391C47.5095 39.5408 46.9043 39.7426 46.2991 39.8434C45.7947 39.9443 45.3913 39.9443 44.8869 40.0452C44.5843 40.1461 44.1808 40.2469 43.8782 40.3478C43.5756 40.4487 43.273 40.5495 42.8695 40.5495H42.7686C42.8695 40.7513 42.9704 40.953 43.1721 41.1548C43.4747 41.4574 43.7773 41.6591 44.08 41.8608C44.3826 42.0626 44.6852 42.1634 44.8869 42.3652C45.7947 42.8695 46.6017 43.5756 47.3078 44.2817C47.6104 44.5843 47.8121 44.8869 48.1147 45.1895C48.1147 45.2904 48.2156 45.2904 48.2156 45.3913C48.4173 45.4921 48.5182 45.6939 48.7199 45.7948C48.9217 45.9965 49.0226 46.0974 49.1234 46.4C49.2243 46.5008 49.2243 46.7026 49.3252 46.8034C49.3252 46.8034 49.3252 46.8034 49.3252 46.9043C49.2243 46.9043 49.2243 46.9043 49.1234 46.8034C49.0226 46.7026 48.9217 46.7026 48.9217 46.6017C48.7199 46.4 48.4173 46.1982 48.2156 45.9965C47.913 45.7948 47.5095 45.4921 47.2069 45.2904C46.8034 44.9878 46.2991 44.7861 45.7947 44.4834C45.2904 44.2817 44.786 43.9791 44.2817 43.7774C43.6765 43.4748 43.1721 43.0713 42.5669 42.6678C41.9617 42.2643 41.5582 41.76 41.1547 41.1548C41.0539 40.953 40.953 40.7513 40.8521 40.5495C40.8521 40.4487 40.7513 40.3478 40.6504 40.2469V40.1461C40.6504 40.0452 40.7513 39.9443 40.8521 39.9443C40.953 39.8434 41.0539 39.8434 41.0539 39.8434C41.4573 39.7426 41.7599 39.5408 42.1634 39.44C42.7686 39.2382 43.3739 39.1374 43.9791 39.0365C44.786 38.9356 45.4921 38.9356 46.2991 38.9356H46.3999C46.3999 38.8348 46.2991 38.7339 46.2991 38.7339C46.1982 38.633 46.0973 38.5321 45.8956 38.3304C45.7947 38.2295 45.6939 38.2295 45.593 38.1287C44.786 37.6243 44.08 37.0191 43.273 36.5148C42.9704 36.313 42.6678 36.1113 42.3652 35.9095C42.0626 35.7078 41.8608 35.6069 41.5582 35.5061C40.7513 35.2034 39.8434 34.9008 39.0365 34.5982C38.8347 34.4974 38.633 34.3965 38.4313 34.2956C38.2295 34.1948 38.1286 34.0939 38.0278 33.8921C37.6243 33.2869 37.2208 32.6817 36.9182 31.9756C36.2121 30.2608 35.4052 28.6469 34.5982 26.9321C34.4973 26.7304 34.3965 26.5287 34.3965 26.3269C34.1947 25.6208 33.7913 24.9148 33.3878 24.2087C32.0765 21.9895 30.4626 20.073 28.546 18.4591C27.1339 17.2487 25.5199 16.24 23.8052 15.433C23.5026 15.3321 23.2 15.1304 22.7965 15.0295C22.393 14.9287 21.9895 14.8278 21.586 14.8278C21.1826 14.8278 20.6782 14.8278 20.2747 14.7269C20.1739 14.7269 19.9721 14.7269 19.8713 14.7269C19.7704 14.7269 19.6695 14.7269 19.5686 14.6261C19.4678 14.5252 19.266 14.4243 19.1652 14.3234C18.5599 13.7182 17.9547 13.4156 17.2486 13.0121C16.7443 12.8104 16.24 12.6087 15.7356 12.4069C15.5339 12.3061 15.2313 12.3061 15.0295 12.3061C14.8278 12.3061 14.626 12.4069 14.5252 12.5078L14.4243 12.6087C14.3234 12.8104 14.2226 13.113 14.3234 13.3148C14.4243 13.6174 14.5252 13.92 14.7269 14.1217C14.9286 14.4243 15.2313 14.7269 15.433 15.0295C15.8365 15.6348 16.3408 16.1391 16.6434 16.7443C17.0469 17.3495 17.2486 17.9548 17.4504 18.56C17.753 19.3669 17.9547 20.073 18.2573 20.88C18.56 21.6869 18.8626 22.4939 19.3669 23.2C19.4678 23.3008 19.5686 23.5026 19.6695 23.6034C19.7704 23.7043 19.8713 23.8052 19.9721 23.9061C20.1739 24.1078 20.2747 24.3095 20.3756 24.5113C20.4765 24.713 20.3756 24.9148 20.3756 25.0156C20.2747 25.4191 20.1739 25.8226 20.073 26.2261C19.9721 26.6295 19.7704 27.033 19.6695 27.4365C19.4678 28.0417 19.4678 28.6469 19.3669 29.2521C19.3669 29.8574 19.3669 30.3617 19.3669 30.9669C19.4678 31.9756 19.6695 32.9843 20.073 33.993C20.1739 34.1948 20.2747 34.4974 20.3756 34.6991C20.4765 34.9008 20.5773 35.1026 20.7791 35.2035C20.88 35.3043 20.9808 35.4052 21.1826 35.4052C21.2834 35.4052 21.3843 35.4052 21.3843 35.3043C21.3843 35.1026 21.4852 34.9008 21.4852 34.5982C21.586 33.8921 21.586 33.1861 21.7878 32.5808C21.9895 31.8748 22.1913 31.1687 22.6956 30.6643C22.8973 30.4626 22.9982 30.2608 23.2 30.0591C23.3008 29.9582 23.3008 29.9582 23.3008 30.0591C23.4017 30.16 23.4017 30.16 23.4017 30.2608C23.906 31.8748 24.713 33.3878 25.5199 34.8C26.1252 35.9095 26.8313 36.9182 27.6382 37.9269C27.9408 38.3304 28.3443 38.7339 28.6469 39.0365C28.7478 39.1374 28.7478 39.1374 28.8486 39.2382C29.0504 39.3391 29.1513 39.44 29.353 39.6417C29.353 39.6417 29.353 39.6417 29.2521 39.6417C29.0504 39.5408 28.8486 39.44 28.6469 39.2382C28.4452 39.0365 28.2434 38.8348 28.0417 38.633C27.8399 38.4313 27.5373 38.2295 27.3356 38.0278C26.4278 37.3217 25.5199 36.5148 24.8139 35.6069C24.5113 35.2034 24.3095 34.9008 24.1078 34.4974C23.906 33.993 23.6034 33.4887 23.3008 32.9843C23.3008 32.9843 23.3008 32.8834 23.2 32.8834C23.0991 32.9843 23.0991 32.9843 23.0991 33.0852C22.9982 33.7913 22.8973 34.4974 22.7965 35.2035C22.7965 35.4052 22.6956 35.6069 22.5947 35.9095C22.2921 36.7165 21.3843 36.9182 20.7791 36.7165C20.4765 36.6156 20.2747 36.4139 20.073 36.2121C19.5686 35.7078 19.266 35.2034 18.9634 34.5982C18.5599 33.7913 18.3582 32.8834 18.2573 32.0765C18.1565 31.3704 18.1565 30.6643 18.1565 29.9582C18.1565 29.0504 18.3582 28.0417 18.5599 27.2348C18.6608 26.8313 18.7617 26.4278 18.8626 25.9234C18.9634 25.7217 18.9634 25.4191 19.1652 25.2174C19.1652 25.1165 19.1652 25.1165 19.1652 25.0156C19.1652 24.9148 19.0643 24.713 18.9634 24.713C18.4591 24.3095 18.1565 23.7043 17.8539 23.0991C17.4504 22.2921 17.0469 21.3843 16.7443 20.5774C16.6434 20.1739 16.4417 19.7704 16.3408 19.3669C16.24 19.1652 16.1391 18.8626 16.1391 18.56C16.0382 18.2574 15.9373 17.8539 15.7356 17.5513C15.433 17.1478 15.1304 16.6434 14.8278 16.24C14.5252 15.9374 14.3234 15.5339 14.0208 15.2313C13.7182 14.8278 13.5165 14.5252 13.3147 14.1217C13.2139 13.8191 13.113 13.6174 13.0121 13.3148C13.0121 13.3148 13.0121 13.2139 12.9113 13.2139C12.9113 13.113 12.9113 12.9113 12.9113 12.8104C12.9113 12.7095 12.9113 12.7095 13.0121 12.6087C13.113 12.3061 13.2139 12.0034 13.3147 11.8017C13.5165 11.3982 13.92 11.1965 14.3234 11.0956C14.4243 11.0956 14.5252 10.9948 14.7269 10.9948C14.8278 10.9948 14.8278 10.9948 14.9286 10.9948C15.0295 10.9948 15.1304 10.9948 15.3321 10.9948C15.7356 11.1965 15.7356 11.1965 15.8365 11.1965Z" fill="white"/>
<path d="M15.0295 11.196C14.9286 11.196 14.8278 11.196 14.626 11.2968C14.2226 11.3977 13.92 11.7003 13.6173 12.0029C13.4156 12.3055 13.3147 12.5073 13.3147 12.8099C13.3147 12.9107 13.3147 12.9107 13.2139 13.0116C13.2139 12.4064 13.2139 11.8012 13.2139 11.0951C13.92 11.196 14.4243 11.196 15.0295 11.196Z" fill="white"/>
<path d="M20.5774 17.4505C20.6783 17.3496 20.88 17.3496 20.9809 17.3496C21.0817 17.3496 21.0817 17.3496 21.1826 17.3496C21.3843 17.3496 21.5861 17.3496 21.7878 17.4505C21.8887 17.5513 21.8887 17.5513 21.9896 17.5513C22.0904 17.6522 22.2922 17.7531 22.2922 17.9548C22.393 18.0557 22.393 18.1566 22.4939 18.2574V18.3583C22.4939 18.6609 22.4939 18.8627 22.2922 19.1653C22.1913 19.367 22.0904 19.4679 21.8887 19.5687L21.7878 19.4679C21.687 19.1653 21.4852 18.8627 21.3844 18.6609C21.2835 18.4592 21.1826 18.3583 21.0817 18.1566C20.9809 17.9548 20.7791 17.7531 20.5774 17.4505Z" fill="white"/>
<defs>
<linearGradient id="paint0_linear" x1="48.1305" y1="9.86928" x2="7.29428" y2="50.7055" gradientUnits="userSpaceOnUse">
<stop stop-color="#0CA6D3"/>
<stop offset="1" stop-color="#096B88"/>
</linearGradient>
</defs>
</svg>
