<svg width="58" height="58" viewBox="0 0 58 58" fill="none" xmlns="http://www.w3.org/2000/svg">
<path d="M28.9496 0C13.0122 0 0 13.0122 0 29.0504C0 44.9878 13.0122 58 28.9496 58C44.887 58 58 44.9878 58 29.0504C58 13.0122 44.9878 0 28.9496 0Z" fill="url(#paint0_linear)"/>
<path d="M39.1374 21.7879H18.9635L29.1514 16.1392L39.1374 21.7879ZM29.1514 39.0366L19.6696 22.8974H38.3305L29.1514 39.0366ZM18.2574 22.6957L28.647 40.3479L18.2574 34.8V22.6957ZM29.7566 40.4487L39.7427 22.7966V34.9009L29.7566 40.4487Z" fill="white"/>
<defs>
<linearGradient id="paint0_linear" x1="0" y1="29.0027" x2="58.0054" y2="29.0027" gradientUnits="userSpaceOnUse">
<stop stop-color="#48AD48"/>
<stop offset="1" stop-color="#35B08E"/>
</linearGradient>
</defs>
</svg>
