<svg width="58" height="58" viewBox="0 0 58 58" fill="none" xmlns="http://www.w3.org/2000/svg">
<path d="M28.9496 0C13.0122 0 0 13.0122 0 29.0504C0 44.9878 13.0122 58 28.9496 58C44.887 58 58 44.9878 58 29.0504C58 13.0122 44.9878 0 28.9496 0Z" fill="url(#paint0_linear)"/>
<path d="M39.2383 23.3008C38.6331 22.6956 37.8261 22.393 37.0192 22.393C35.3044 22.393 33.8922 23.8052 33.8922 25.52C33.8922 27.2347 35.3044 28.6469 37.0192 28.6469C38.734 28.6469 40.1461 27.2347 40.1461 25.52C40.1461 24.713 39.8435 23.906 39.2383 23.3008ZM35.7079 24.3095C35.1027 24.9147 35.0018 25.7217 35.4053 26.4278C35.0018 25.9234 34.5983 25.3182 34.3966 24.8139C34.4974 24.4104 34.6992 24.0069 35.1026 23.7043C35.3044 23.5026 35.5061 23.3008 35.8087 23.2C35.8087 23.5026 35.9096 23.7043 36.0105 24.0069C35.9096 24.1078 35.8087 24.2087 35.7079 24.3095Z" fill="white"/>
<path d="M27.033 20.6782C27.7391 20.2748 28.5461 20.073 29.3531 20.073C29.9583 20.073 30.4626 20.1739 30.967 20.3756C31.4713 19.8713 31.673 19.1652 31.673 18.4591C31.673 17.6522 31.3704 16.9461 30.8661 16.4417C30.3617 15.9374 29.6557 15.6348 28.8487 15.6348C27.2348 15.6348 26.0244 16.9461 26.0244 18.4591C26.0244 19.3669 26.4278 20.1739 27.033 20.6782ZM27.1339 16.7443C27.3357 16.5426 27.5374 16.4417 27.7391 16.3409C27.7391 16.5426 27.84 16.8452 27.9409 17.1478C27.84 17.2487 27.7391 17.2487 27.6383 17.3495C27.1339 17.8539 27.0331 18.6609 27.3357 19.2661C26.9322 18.7617 26.6296 18.2574 26.4278 17.8539C26.6296 17.3495 26.8313 17.0469 27.1339 16.7443Z" fill="white"/>
<path d="M26.8313 28.647C28.0418 27.4365 29.7565 26.6296 31.5722 26.6296C32.1774 26.6296 32.7826 26.7304 33.3878 26.9322C33.6904 26.327 33.7913 25.7217 33.7913 25.0157C33.7913 23.8052 33.287 22.6957 32.48 21.8887C31.6731 21.0817 30.5635 20.5774 29.3531 20.5774C26.9322 20.5774 24.9148 22.5948 24.9148 25.0157C24.9148 26.5287 25.6209 27.84 26.8313 28.647ZM26.8313 22.4939C27.1339 22.1913 27.4365 21.9896 27.7391 21.7878C27.7391 22.1913 27.84 22.4939 28.0417 22.9983C27.84 23.0991 27.7391 23.2 27.6383 23.3009C26.8313 24.1078 26.7304 25.2174 27.2348 26.1252C26.6296 25.4191 26.1252 24.6122 25.9235 23.9061C26.0244 23.5026 26.327 22.8974 26.8313 22.4939Z" fill="white"/>
<path d="M31.5722 39.44C34.9009 39.44 37.7253 36.7165 37.7253 33.287C37.7253 31.673 37.1201 30.16 35.9096 28.9496C34.8001 27.84 33.1861 27.1339 31.5722 27.1339C28.2435 27.1339 25.4192 29.8574 25.4192 33.287C25.4192 36.7165 28.1427 39.44 31.5722 39.44ZM28.0418 29.8574C28.4453 29.4539 28.8488 29.1513 29.3531 28.9496C29.3531 29.4539 29.5548 29.9583 29.7566 30.5635C29.5548 30.6643 29.3531 30.8661 29.1514 31.0678C28.1427 32.0765 27.9409 33.6904 28.5461 35.0017C27.7392 33.993 27.0331 32.9843 26.7305 32.0765C27.0331 31.1687 27.4366 30.4626 28.0418 29.8574Z" fill="white"/>
<path d="M26.4279 29.0504C25.2174 28.1426 24.4105 26.7304 24.4105 25.0157C24.4105 24.9148 24.4105 24.9148 24.4105 24.8139C23.8052 24.5113 23.0992 24.3096 22.3931 24.3096C19.8713 24.3096 17.8539 26.327 17.8539 28.8487C17.8539 31.3704 19.8713 33.3878 22.3931 33.3878C23.3009 33.3878 24.2087 33.0852 24.9148 32.5809C25.1166 31.1687 25.6209 29.9583 26.4279 29.0504ZM20.6783 27.1339C19.8713 27.9409 19.7705 29.1513 20.2748 30.0591C19.6696 29.353 19.1652 28.5461 18.9635 27.84C19.1652 27.2348 19.4679 26.7304 19.8713 26.327C20.1739 26.0244 20.4766 25.8226 20.7792 25.6209C20.7792 26.0244 20.88 26.4278 21.0818 26.8313C20.88 26.8313 20.7792 26.9322 20.6783 27.1339Z" fill="white"/>
<path d="M23.2 33.3878C21.8887 33.3878 20.7792 34.4974 20.7792 35.8087C20.7792 37.12 21.8887 38.2296 23.2 38.2296C24.5113 38.2296 25.6209 37.12 25.6209 35.8087C25.6209 35.1026 25.3183 34.4974 24.9148 34.0939C24.4105 33.6904 23.8053 33.3878 23.2 33.3878ZM22.1913 34.9009C21.7879 35.3043 21.687 36.0104 21.9896 36.5148C21.5861 36.1113 21.3844 35.6069 21.1827 35.2035C21.2835 34.9009 21.4853 34.5983 21.687 34.2956C21.8887 34.0939 21.9896 33.993 22.1913 33.8922C22.1913 34.0939 22.2922 34.2956 22.3931 34.5983C22.2922 34.6991 22.2922 34.8 22.1913 34.9009Z" fill="white"/>
<defs>
<linearGradient id="paint0_linear" x1="8.29763" y1="49.7023" x2="49.39" y2="8.60982" gradientUnits="userSpaceOnUse">
<stop stop-color="#00AEEF"/>
<stop offset="1" stop-color="#71C0E2"/>
</linearGradient>
</defs>
</svg>
