<?xml version="1.0" encoding="utf-8"?>
<!-- Generator: Adobe Illustrator 25.4.1, SVG Export Plug-In . SVG Version: 6.00 Build 0)  -->
<svg version="1.1" id="Layer_1" xmlns="http://www.w3.org/2000/svg" xmlns:xlink="http://www.w3.org/1999/xlink" x="0px" y="0px"
	 viewBox="0 0 510 510" style="enable-background:new 0 0 510 510;" xml:space="preserve">
<style type="text/css">
	.st0{fill:#DCEAEF;}
	.st1{fill:#1B75BC;}
</style>
<g>
	<path class="st0" d="M254.6,8.3C118.6,8.3,7.5,119.4,7.5,256.2c0,136,111.1,247.1,247.1,247.1s247.9-111.1,247.9-247.1
		C502.5,119.4,391.4,8.3,254.6,8.3z"/>
</g>
<g>
	<path class="st1" d="M378.5,379.3c68.2-68.2,68.2-178.9,0-247.1s-178.9-68.2-247.1,0s-68.2,178.9,0,247.1S310.3,447.6,378.5,379.3z
		 M150.8,141.9c60.2-60.2,157.9-60.2,218.1,0s60.2,157.9,0,218.1s-157.9,60.2-218.1,0S90.6,202.2,150.8,141.9z"/>
	<g>
		<path class="st1" d="M188,132.3c-52.6,52.6-52.6,137.9,0,190.5c52.6,52.6,137.9,52.6,190.5,0c52.6-52.6,52.6-137.9,0-190.5
			S240.6,79.6,188,132.3z M363.6,315.3c-46.4,46.4-121.7,46.4-168.2,0s-46.4-121.7,0-168.2s121.7-46.4,168.2,0
			S410.1,268.9,363.6,315.3z"/>
		<path class="st1" d="M319.5,322.8c36.3-36.3,36.3-95.2,0-131.5s-95.2-36.3-131.5,0s-36.3,95.2,0,131.5
			C224.3,359.1,283.2,359.1,319.5,322.8z M198.3,196.4c32.1-32.1,84-32.1,116.1,0s32.1,84,0,116.1s-84,32.1-116.1,0
			S166.2,228.5,198.3,196.4z"/>
	</g>
	<circle class="st1" cx="283.4" cy="227.4" r="47.2"/>
</g>
</svg>
