<svg width="56" height="56" viewBox="0 0 56 56" fill="none" xmlns="http://www.w3.org/2000/svg">
<path d="M28 56C43.465 56 56 43.465 56 28C56 12.535 43.465 0 28 0C12.535 0 0 12.535 0 28C0 43.465 12.535 56 28 56Z" fill="url(#paint0_linear_10378_98135)"/>
<path d="M36.2597 27.9533V32.7495C36.2594 32.9708 36.1815 33.185 36.0394 33.3554C35.8972 33.5258 35.6997 33.6417 35.4808 33.6832L32.4286 34.2566V46.0506C32.4286 46.3024 32.3279 46.5439 32.1485 46.7219C31.9692 46.9 31.7259 47 31.4723 47H27.6175C27.3694 46.9915 27.1343 46.8877 26.9618 46.7105C26.7893 46.5333 26.6929 46.2965 26.6929 46.0501C26.6929 45.8037 26.7893 45.5669 26.9618 45.3896C27.1343 45.2124 27.3694 45.1086 27.6175 45.1002H30.517V34.6123L22.8583 36.051V38.4468C22.8628 38.5743 22.8413 38.7014 22.7952 38.8204C22.7491 38.9395 22.6793 39.0482 22.59 39.1399C22.5007 39.2316 22.3937 39.3046 22.2754 39.3544C22.1571 39.4042 22.0299 39.4299 21.9014 39.4299C21.7729 39.4299 21.6457 39.4042 21.5274 39.3544C21.4091 39.3046 21.3022 39.2316 21.2129 39.1399C21.1236 39.0482 21.0538 38.9395 21.0077 38.8204C20.9616 38.7014 20.9401 38.5743 20.9445 38.4468V35.2643C20.9446 35.043 21.0224 34.8287 21.1646 34.6582C21.3067 34.4878 21.5044 34.3719 21.7234 34.3307L30.517 32.6788V27.9533C30.517 27.451 30.316 26.9692 29.9582 26.6139C29.6003 26.2587 29.1149 26.0591 28.6089 26.0591C28.1028 26.0591 27.6174 26.2587 27.2596 26.6139C26.9017 26.9692 26.7007 27.451 26.7007 27.9533C26.6922 28.1996 26.5876 28.433 26.4091 28.6042C26.2306 28.7755 25.992 28.8712 25.7438 28.8712C25.4955 28.8712 25.257 28.7755 25.0785 28.6042C24.9 28.433 24.7954 28.1996 24.7869 27.9533C24.7869 27.4551 24.8857 26.9617 25.0778 26.5014C25.2699 26.0411 25.5514 25.6228 25.9063 25.2705C26.2612 24.9182 26.6825 24.6388 27.1463 24.4481C27.61 24.2574 28.107 24.1593 28.6089 24.1593C29.1108 24.1593 29.6078 24.2574 30.0715 24.4481C30.5352 24.6388 30.9565 24.9182 31.3114 25.2705C31.6663 25.6228 31.9479 26.0411 32.1399 26.5014C32.332 26.9617 32.4309 27.4551 32.4309 27.9533V32.3186L34.3458 31.9595V27.9533C34.3458 24.7608 31.7696 22.1663 28.6032 22.1663C27.5072 22.1723 26.4358 22.4887 25.5147 23.0783C24.5935 23.6679 23.861 24.5062 23.4032 25.4947C23.2075 25.9905 22.9108 26.4409 22.5317 26.8177C22.0068 27.3388 21.3404 27.6969 20.6139 27.8483C19.8874 27.9997 19.1322 27.9378 18.4406 27.6701C17.749 27.4024 17.1508 26.9406 16.7192 26.3411C16.2876 25.7415 16.0412 25.0302 16.0102 24.2939C16.0033 24.2479 15.9999 24.2014 16 24.1548V23.2077C16.0003 21.6969 16.6042 20.2479 17.6793 19.1786C18.7544 18.1093 20.2128 17.5069 21.7347 17.5037C22.7494 17.5025 23.7223 17.1022 24.4403 16.3904C25.1584 15.6787 25.563 14.7135 25.5657 13.7062V12.7288C25.5547 12.2342 25.3493 11.7635 24.9934 11.4172C24.6374 11.0709 24.1592 10.8765 23.6609 10.8755C23.1625 10.8745 22.6835 11.0669 22.3261 11.4117C21.9688 11.7565 21.7614 12.2264 21.7483 12.721V12.7804C21.7462 13.5359 21.4426 14.2598 20.904 14.7936C20.3655 15.3274 19.6358 15.6276 18.8747 15.6285C18.7463 15.6329 18.6183 15.6116 18.4983 15.5658C18.3784 15.52 18.2689 15.4508 18.1765 15.3621C18.0841 15.2735 18.0106 15.1673 17.9604 15.0499C17.9102 14.9324 17.8843 14.8062 17.8843 14.6786C17.8843 14.551 17.9102 14.4248 17.9604 14.3073C18.0106 14.1899 18.0841 14.0837 18.1765 13.9951C18.2689 13.9064 18.3784 13.8371 18.4983 13.7914C18.6183 13.7456 18.7463 13.7243 18.8747 13.7287C19.1274 13.7284 19.3698 13.6293 19.5494 13.4529C19.7291 13.2764 19.8315 13.0369 19.8344 12.786V12.7299C19.8517 11.7348 20.262 10.7863 20.977 10.0886C21.692 9.39094 22.6544 9 23.657 9C24.6596 9 25.622 9.39094 26.337 10.0886C27.052 10.7863 27.4623 11.7348 27.4796 12.7299V13.7085C27.4754 15.2193 26.8684 16.6669 25.7915 17.7344C24.7146 18.802 23.2555 19.4026 21.7336 19.4046C20.7192 19.407 19.7472 19.8088 19.0309 20.5217C18.3145 21.2347 17.9124 22.2007 17.9127 23.2077V24.0381C17.9173 24.0753 17.9196 24.1128 17.9195 24.1503C17.9225 24.5237 18.0366 24.8879 18.2473 25.1971C18.4581 25.5064 18.7562 25.747 19.1042 25.8887C19.4522 26.0304 19.8347 26.0669 20.2035 25.9936C20.5723 25.9203 20.9111 25.7405 21.1774 25.4767C21.3551 25.2982 21.4974 25.088 21.5968 24.8573C21.6058 24.8326 21.6137 24.8079 21.6239 24.7843C21.638 24.7501 21.6543 24.7167 21.6725 24.6845C22.2858 23.3708 23.2634 22.2578 24.4908 21.4758C25.7182 20.6937 27.1447 20.275 28.6032 20.2687C32.8254 20.2676 36.2597 23.7138 36.2597 27.9533ZM41.0425 29.8992C40.7888 29.8992 40.5454 29.7992 40.3659 29.6212C40.1864 29.4432 40.0853 29.2017 40.085 28.9498V27.9533C40.0871 26.4557 39.7916 24.9723 39.2153 23.5882C38.639 22.204 37.7933 20.9464 36.7266 19.8872C35.66 18.828 34.3933 17.9881 32.9991 17.4156C31.605 16.8432 30.1108 16.5493 28.6021 16.5509C28.4737 16.5466 28.3456 16.5679 28.2257 16.6136C28.1057 16.6594 27.9963 16.7287 27.9039 16.8173C27.8115 16.906 27.738 17.0122 27.6878 17.1296C27.6376 17.247 27.6117 17.3733 27.6117 17.5009C27.6117 17.6284 27.6376 17.7547 27.6878 17.8721C27.738 17.9896 27.8115 18.0958 27.9039 18.1844C27.9963 18.273 28.1057 18.3423 28.2257 18.3881C28.3456 18.4338 28.4737 18.4552 28.6021 18.4508C29.859 18.4508 31.1036 18.6966 32.2648 19.1742C33.426 19.6518 34.4811 20.3518 35.3697 21.2342C36.2583 22.1167 36.9631 23.1642 37.4438 24.3171C37.9245 25.47 38.1717 26.7056 38.1712 27.9533V28.9498C38.1721 29.7055 38.4749 30.43 39.0132 30.9643C39.5515 31.4987 40.2813 31.7993 41.0425 31.8002C41.2965 31.8002 41.54 31.7 41.7196 31.5218C41.8991 31.3435 42 31.1018 42 30.8497C42 30.5976 41.8991 30.3558 41.7196 30.1776C41.54 29.9993 41.2965 29.8992 41.0425 29.8992Z" fill="white"/>
<defs>
<linearGradient id="paint0_linear_10378_98135" x1="-10.4245" y1="63.0882" x2="60.5807" y2="-1.75184" gradientUnits="userSpaceOnUse">
<stop offset="0.2359" stop-color="#E65370"/>
<stop offset="1" stop-color="#A378B5"/>
</linearGradient>
</defs>
</svg>
