<svg width="56" height="56" viewBox="0 0 56 56" fill="none" xmlns="http://www.w3.org/2000/svg">
<path d="M27.9514 0C12.5632 0 0 12.5632 0 28.0486C0 43.4345 12.5632 56 27.9514 56C43.3395 56 56 43.4424 56 28.0486C56 12.5632 43.4368 0 27.9514 0Z" fill="url(#paint0_linear_10378_98132)"/>
<path d="M37.83 46.437C41.4226 46.437 44.335 43.5246 44.335 39.932C44.335 36.3393 41.4226 33.4269 37.83 33.4269C34.2374 33.4269 31.325 36.3393 31.325 39.932C31.325 43.5246 34.2374 46.437 37.83 46.437Z" fill="white"/>
<path d="M35.9916 36.4905C36.1115 36.71 36.2495 36.9792 36.4057 37.3005C36.5618 37.6218 36.7236 37.9691 36.8933 38.3436C37.063 38.7181 37.2327 39.1004 37.3967 39.4907L37.8639 40.5926L38.3323 39.4907C38.4986 39.1004 38.666 38.7169 38.8346 38.3436C39.0032 37.9703 39.1672 37.6218 39.3233 37.3005C39.4794 36.9792 39.6163 36.71 39.7362 36.4905H41.147C41.2126 36.9476 41.2737 37.4593 41.3303 38.0257C41.3868 38.5921 41.4366 39.1811 41.4796 39.7928C41.5226 40.406 41.5622 41.0203 41.5984 41.6357C41.6346 42.2511 41.6663 42.8315 41.6934 43.3734H40.1831C40.1635 42.7052 40.1371 41.977 40.1039 41.1888C40.0707 40.4007 40.021 39.6061 39.9546 38.8052C39.8358 39.0835 39.7023 39.3912 39.5564 39.7283C39.4104 40.0655 39.2656 40.4071 39.1231 40.7465C38.9805 41.0859 38.8425 41.4072 38.7102 41.7149C38.5778 42.0226 38.4635 42.2862 38.3708 42.5068H37.2881C37.1953 42.2881 37.0822 42.0241 36.9487 41.7149C36.8152 41.4057 36.6772 41.0829 36.5346 40.7465C36.3921 40.4094 36.2477 40.07 36.1013 39.7283C35.9554 39.3889 35.8219 39.0835 35.7031 38.8052C35.636 39.6061 35.5862 40.4007 35.5538 41.1888C35.5214 41.977 35.495 42.7052 35.4746 43.3734H33.9666C33.9926 42.8315 34.0243 42.2511 34.0605 41.6357C34.0967 41.0203 34.1363 40.406 34.1792 39.7928C34.2222 39.1796 34.272 38.5914 34.3286 38.0257C34.3851 37.46 34.4417 36.9476 34.5118 36.4905H35.9916Z" fill="url(#paint1_linear_10378_98132)"/>
<path d="M44.3282 16.8679C44.2592 17.3072 44.061 17.716 43.7587 18.0422C43.4565 18.3684 43.064 18.5972 42.6312 18.6995L39.1637 19.5548C38.8311 20.2632 38.4262 20.9354 37.9555 21.5606C37.8827 21.6669 37.7892 21.7574 37.6806 21.8267C37.572 21.896 37.4505 21.9427 37.3235 21.9641C37.1964 21.9854 37.0664 21.9808 36.9411 21.9507C36.8158 21.9206 36.6979 21.8656 36.5944 21.7889C36.4909 21.7121 36.4039 21.6153 36.3387 21.5042C36.2734 21.3931 36.2313 21.27 36.2147 21.1423C36.1981 21.0145 36.2075 20.8847 36.2422 20.7606C36.277 20.6366 36.3364 20.5208 36.4169 20.4202C37.2631 19.2776 37.5539 18.4438 37.5573 18.4348C37.6095 18.2824 37.6989 18.1455 37.8174 18.0364C37.936 17.9273 38.0799 17.8496 38.2361 17.8103L42.1742 16.8396C42.241 16.8228 42.3014 16.7868 42.3481 16.7361C42.3948 16.6854 42.4257 16.6222 42.4369 16.5543C42.4482 16.4863 42.4394 16.4165 42.4117 16.3534C42.3839 16.2904 42.3383 16.2368 42.2805 16.1993L39.959 14.7082C39.5393 14.4695 38.9918 14.2557 38.8028 14.2557C38.7039 14.2584 38.6059 14.2759 38.5121 14.3077C38.4963 14.3144 38.48 14.3201 38.4635 14.3247C37.8959 14.5602 37.4107 14.9581 37.0685 15.4685C36.8452 15.8096 36.587 16.1265 36.2981 16.4142C35.4055 17.3193 34.2934 18.4563 32.0976 18.0716C30.3757 17.7707 29.4401 16.8724 28.397 15.7298L28.388 15.7207C27.0949 14.2681 25.9228 13.7285 24.0618 13.7285C21.298 13.7285 18.9008 15.6257 18.4833 18.1406C18.4436 18.4027 18.4236 18.6674 18.4234 18.9325C18.4214 19.9519 18.7166 20.9497 19.273 21.8038C19.3452 21.9091 19.3956 22.0277 19.4212 22.1528C19.4469 22.2778 19.4474 22.4067 19.4225 22.5319C19.3977 22.6571 19.3481 22.7761 19.2767 22.8819C19.2053 22.9876 19.1134 23.0781 19.0065 23.1479C18.8997 23.2176 18.7799 23.2654 18.6544 23.2883C18.5288 23.3111 18.3999 23.3087 18.2753 23.2811C18.1507 23.2535 18.0328 23.2012 17.9287 23.1274C17.8245 23.0537 17.7362 22.9598 17.6688 22.8514C17.2845 22.2618 16.9895 21.6187 16.7932 20.9429C14.7941 24.3821 12.8958 26.2329 10.8447 26.8053C10.3897 26.9338 9.91921 26.9992 9.44641 26.9999C8.11824 26.9999 6.72447 26.4965 5.22095 25.4806C5.10831 25.4141 5.01048 25.3252 4.9335 25.2194C4.85651 25.1136 4.802 24.9932 4.77332 24.8656C4.74463 24.738 4.74239 24.6058 4.76672 24.4773C4.79105 24.3487 4.84144 24.2266 4.91479 24.1182C4.98814 24.0099 5.08289 23.9178 5.1932 23.8474C5.30352 23.7771 5.42706 23.7302 5.55622 23.7094C5.68539 23.6887 5.81743 23.6946 5.94421 23.7268C6.071 23.759 6.18985 23.8168 6.29344 23.8967C7.86144 24.9568 9.14435 25.2973 10.3288 24.967C12.4455 24.3764 14.5973 21.573 17.0997 16.1552C17.1065 16.1405 17.1133 16.128 17.1212 16.1133C17.5859 15.1077 18.2771 14.2233 19.1406 13.5294C20.5369 12.4131 22.273 11.8079 24.0607 11.8143C26.45 11.8143 28.1708 12.6006 29.8134 14.4435C30.7999 15.5228 31.3814 16.0024 32.4256 16.1857C33.5796 16.3871 34.0536 15.9662 34.9315 15.0725C35.1288 14.8769 35.3055 14.6616 35.4587 14.4299C35.6439 14.1475 35.8586 13.8854 36.099 13.6482C35.9487 13.5293 35.8076 13.3992 35.677 13.259C35.2828 12.8136 34.9814 12.294 34.7907 11.7306C34.5999 11.1673 34.5235 10.5715 34.5661 9.9782C34.5755 9.85253 34.6095 9.72994 34.6664 9.61746C34.7232 9.50498 34.8016 9.40481 34.8972 9.3227C34.9928 9.24058 35.1037 9.17812 35.2234 9.13891C35.3432 9.09969 35.4695 9.08448 35.5952 9.09415C35.7208 9.10382 35.8433 9.13818 35.9557 9.19527C36.068 9.25235 36.168 9.33103 36.2499 9.42681C36.3318 9.52259 36.394 9.63358 36.433 9.75343C36.4719 9.87328 36.4868 9.99964 36.4769 10.1253C36.4287 10.7932 36.6472 11.453 37.0844 11.9603C37.2089 12.0949 37.3554 12.2074 37.5177 12.2929C37.4193 11.3708 37.7654 10.3413 38.5494 9.44082C38.6272 9.33287 38.7267 9.24231 38.8414 9.1749C38.9561 9.10749 39.0836 9.06471 39.2158 9.0493C39.348 9.03388 39.4819 9.04616 39.6091 9.08535C39.7362 9.12455 39.8538 9.1898 39.9544 9.27695C40.0549 9.3641 40.1362 9.47123 40.1931 9.59153C40.25 9.71183 40.2812 9.84266 40.2847 9.97568C40.2882 10.1087 40.264 10.241 40.2136 10.3641C40.1632 10.4873 40.0877 10.5986 39.9919 10.6909C39.5167 11.2362 39.2101 11.9942 39.5721 12.4614C40.0456 12.6085 40.501 12.8085 40.9297 13.0576L40.9682 13.0814L43.31 14.5849C43.6875 14.821 43.986 15.1644 44.1674 15.5711C44.3487 15.9777 44.4047 16.4292 44.3282 16.8679ZM34.8602 23.0335C34.8608 23.0302 34.8608 23.0267 34.8602 23.0234C34.8585 23.0134 34.8562 23.0036 34.8534 22.994C34.8534 22.9747 34.8466 22.9555 34.8421 22.9374L34.8285 22.8921C34.8229 22.8774 34.8195 22.8639 34.8138 22.8491C34.8082 22.8344 34.8003 22.8163 34.7935 22.8005C34.7889 22.7881 34.7836 22.7761 34.7776 22.7643C34.7697 22.7473 34.7607 22.7315 34.7516 22.7156C34.7426 22.6998 34.7403 22.693 34.7335 22.6817L34.703 22.6365L34.6803 22.6048C34.6702 22.5901 34.6577 22.5765 34.6464 22.5629C34.6387 22.5526 34.6304 22.5428 34.6215 22.5335L34.5808 22.4928L34.5559 22.4679L34.5039 22.426L34.4835 22.4102C34.4606 22.3931 34.4368 22.3772 34.4122 22.3627H34.4066C34.2547 22.2727 34.0808 22.2265 33.9043 22.2292H33.8613H33.8239L33.7696 22.2303H33.7628L33.7289 22.2371L33.678 22.2484L33.6305 22.2631C33.6158 22.2631 33.6022 22.271 33.5886 22.2767L33.54 22.2971L33.5026 22.3129L33.4574 22.3378L33.4201 22.3582L33.3805 22.3842L33.342 22.4113L33.3081 22.4385L33.2707 22.4713L33.2402 22.5007L33.2051 22.538C33.1951 22.5492 33.1856 22.5609 33.1768 22.5731L33.1463 22.6104L33.1169 22.6557C33.1098 22.6647 33.1034 22.6741 33.0976 22.684C32.6451 23.4397 31.0262 24.5337 29.2772 24.5337C28.7076 24.537 28.1391 24.4832 27.5802 24.373C27.5927 24.3323 27.6051 24.2916 27.6164 24.2497C27.9516 23.003 27.9442 21.689 27.5949 20.4462C27.5628 20.3229 27.5063 20.2073 27.4289 20.106C27.3515 20.0048 27.2547 19.92 27.1441 19.8567C27.0335 19.7933 26.9114 19.7526 26.7849 19.7371C26.6584 19.7215 26.5301 19.7313 26.4075 19.7659C26.2848 19.8005 26.1703 19.8592 26.0706 19.9386C25.971 20.0181 25.8881 20.1165 25.827 20.2284C25.7659 20.3402 25.7276 20.4631 25.7146 20.5898C25.7015 20.7166 25.7138 20.8447 25.7509 20.9666C26.0069 21.8775 26.012 22.8407 25.7656 23.7542C25.0223 26.5282 22.1929 28.1901 19.4574 27.457C19.3155 27.419 19.1668 27.4141 19.0227 27.4428C18.8787 27.4715 18.7431 27.5329 18.6266 27.6224C18.5101 27.7119 18.4158 27.827 18.3509 27.9588C18.2861 28.0906 18.2524 28.2355 18.2525 28.3824V28.4525C18.2525 28.5866 18.2806 28.7192 18.3351 28.8417L22.2302 37.6252C22.3059 37.7941 22.4289 37.9373 22.5843 38.0377C22.7397 38.1381 22.9209 38.1913 23.1059 38.1909C23.2396 38.1912 23.3719 38.163 23.4939 38.1083C23.7261 38.0053 23.9078 37.8143 23.9993 37.5774C24.0907 37.3404 24.0843 37.0769 23.9815 36.8446L20.7403 29.5476H20.7595C21.9691 29.5421 23.1572 29.2283 24.2117 28.6359C25.2662 28.0434 26.1522 27.1918 26.786 26.1616C27.5979 26.3603 28.4312 26.4579 29.267 26.4524C30.6698 26.4524 32.0342 25.9603 33.0852 25.2758C32.9879 26.9219 32.3453 27.8778 31.8792 28.5645C31.803 28.6683 31.7485 28.7864 31.719 28.9118C31.6895 29.0371 31.6856 29.1671 31.7076 29.294C31.7295 29.4208 31.7768 29.542 31.8466 29.6502C31.9165 29.7583 32.0074 29.8513 32.114 29.9235C32.2207 29.9957 32.3407 30.0456 32.4671 30.0703C32.5935 30.095 32.7235 30.0939 32.8495 30.0672C32.9754 30.0405 33.0947 29.9886 33.2001 29.9147C33.3055 29.8407 33.395 29.7463 33.4631 29.637C34.1599 28.6064 35.4564 26.6888 34.8546 23.0358L34.8602 23.0335Z" fill="white"/>
<defs>
<linearGradient id="paint0_linear_10378_98132" x1="47.6803" y1="8.30158" x2="8.41471" y2="47.5672" gradientUnits="userSpaceOnUse">
<stop stop-color="#EE2A7B"/>
<stop offset="1" stop-color="#92278F"/>
</linearGradient>
<linearGradient id="paint1_linear_10378_98132" x1="3521.95" y1="1651.57" x2="2318.93" y2="3238.08" gradientUnits="userSpaceOnUse">
<stop stop-color="#EE2A7B"/>
<stop offset="1" stop-color="#92278F"/>
</linearGradient>
</defs>
</svg>
