<svg width="56" height="56" viewBox="0 0 56 56" fill="none" xmlns="http://www.w3.org/2000/svg">
<path d="M28 56C43.4651 56 56 43.4651 56 28C56 12.5349 43.4651 0 28 0C12.5349 0 0 12.5349 0 28C0 43.4651 12.5349 56 28 56Z" fill="url(#paint0_linear_1972_1442)"/>
<path fill-rule="evenodd" clip-rule="evenodd" d="M29.2912 18.674L29.2307 18.7761C28.7654 19.5613 27.6226 19.5609 27.1586 18.7678C26.766 18.0966 26.2271 17.5217 25.5821 17.0866C25.1796 16.8151 24.9831 16.3259 25.0858 15.8514L25.1583 15.5166C25.3062 14.8329 25.9995 14.4151 26.6731 14.6037C27.5709 14.8551 28.5214 14.8588 29.4158 14.6227C30.1851 14.4196 30.9521 14.9247 31.0812 15.6707L31.121 15.9004C31.204 16.3795 31.0114 16.8764 30.6178 17.1786C30.0862 17.5868 29.6343 18.0949 29.2912 18.674ZM23.2035 15.0934C23.5952 13.2842 25.4298 12.1787 27.2124 12.6778C27.7637 12.8322 28.3518 12.835 28.9053 12.6889C30.79 12.1914 32.7193 13.4088 33.0519 15.3294L33.0917 15.5591C33.3023 16.7756 32.815 18.0131 31.8358 18.765C31.5052 19.0188 31.2243 19.3349 31.0118 19.6935L30.9514 19.7956C29.7074 21.895 26.6646 21.884 25.4323 19.7777C25.191 19.3652 24.8598 19.0119 24.4636 18.7446C23.383 18.0156 22.8553 16.7022 23.131 15.4282L23.2035 15.0934ZM10.8082 19.0401L20.4992 22.5518C20.6759 22.6158 20.7892 22.7887 20.7774 22.9762C20.7632 23.2013 20.5749 23.3757 20.3494 23.3726L10.2159 23.2354C9.40273 23.2243 8.66006 22.7716 8.27777 22.0539L8.24589 21.994C7.93573 21.4117 7.91805 20.7173 8.1982 20.1199C8.65812 19.1393 9.78984 18.671 10.8082 19.0401ZM6.38745 19.2707C7.28652 17.3537 9.49885 16.4383 11.4896 17.1597L21.1806 20.6714C22.1924 21.0381 22.8411 22.028 22.7734 23.102C22.6921 24.3912 21.6139 25.3899 20.3223 25.3724L10.1888 25.2352C8.64641 25.2143 7.2377 24.3555 6.51256 22.9941L6.48068 22.9342C5.87435 21.7959 5.83981 20.4384 6.38745 19.2707ZM45.1917 19.0401L35.5007 22.5518C35.324 22.6158 35.2107 22.7887 35.2226 22.9762C35.2368 23.2013 35.425 23.3757 35.6506 23.3726L45.7841 23.2354C46.5972 23.2243 47.3399 22.7716 47.7222 22.0539L47.754 21.994C48.0642 21.4117 48.0819 20.7173 47.8017 20.1199C47.3418 19.1393 46.2101 18.671 45.1917 19.0401ZM49.6125 19.2707C48.7134 17.3537 46.5011 16.4383 44.5104 17.1597L34.8193 20.6714C33.8076 21.0381 33.1588 22.028 33.2265 23.102C33.3078 24.3912 34.386 25.3899 35.6776 25.3724L45.8112 25.2352C47.3535 25.2143 48.7622 24.3555 49.4874 22.9941L49.5193 22.9342C50.1256 21.7959 50.1601 20.4384 49.6125 19.2707ZM20.4607 29.5253L11.5844 32.0381C11.1357 32.1652 10.6536 32.0319 10.3338 31.6925C9.98835 31.3259 9.8966 30.7878 10.1011 30.3274L10.1301 30.262C10.3401 29.7894 10.8002 29.477 11.3169 29.4563L20.3918 29.0925C20.5083 29.0878 20.6083 29.1745 20.6202 29.2904C20.6311 29.3971 20.5639 29.4961 20.4607 29.5253ZM12.1292 33.9625C10.9628 34.2927 9.70961 33.9464 8.87826 33.0642C7.98021 32.1112 7.74172 30.7123 8.27326 29.5156L8.30232 29.4502C8.82137 28.2815 9.95909 27.5091 11.2368 27.4579L20.3117 27.0941C21.4836 27.0471 22.49 27.9195 22.6097 29.0863C22.7198 30.1591 22.0432 31.1559 21.0055 31.4497L12.1292 33.9625ZM44.4157 32.0381L35.5394 29.5253C35.4363 29.4961 35.3691 29.3971 35.38 29.2904C35.3919 29.1745 35.4919 29.0878 35.6084 29.0925L44.6833 29.4563C45.2 29.477 45.6601 29.7894 45.87 30.262L45.8991 30.3274C46.1036 30.7878 46.0118 31.3259 45.6663 31.6925C45.3465 32.0319 44.8644 32.1652 44.4157 32.0381ZM47.1219 33.0642C46.2905 33.9464 45.0373 34.2927 43.8709 33.9625L34.9946 31.4497C33.957 31.1559 33.2803 30.1591 33.3904 29.0863C33.5102 27.9195 34.5166 27.0471 35.6885 27.0941L44.7634 27.4579C46.0411 27.5091 47.1788 28.2815 47.6978 29.4502L47.7269 29.5156C48.2584 30.7123 48.02 32.1112 47.1219 33.0642ZM30.1476 27.9961L30.668 24.9209C30.7387 24.5032 30.3139 24.1763 29.9283 24.3516C28.7376 24.8928 27.3711 24.8928 26.1805 24.3516C25.7948 24.1763 25.37 24.5032 25.4407 24.9209L25.9611 27.9961C26.0717 28.6492 26.4807 29.2133 27.0671 29.5214C27.6852 29.846 28.4235 29.846 29.0416 29.5214C29.628 29.2133 30.0371 28.6492 30.1476 27.9961ZM27.0081 22.5308C25.163 21.6922 23.1306 23.2563 23.4687 25.2546L23.9892 28.3298C24.2038 29.5982 24.9982 30.6938 26.1371 31.292C27.3375 31.9225 28.7712 31.9225 29.9716 31.292C31.1105 30.6938 31.9049 29.5982 32.1195 28.3298L32.64 25.2546C32.9781 23.2563 30.9457 21.6922 29.1006 22.5308C28.4358 22.833 27.6729 22.833 27.0081 22.5308ZM28.9876 34.9861C28.3772 35.1548 27.7315 35.1548 27.1211 34.9861L27.5226 38.093C27.5421 38.2441 27.625 38.3797 27.7505 38.466C27.9335 38.5919 28.1752 38.5919 28.3582 38.466C28.4837 38.3797 28.5666 38.2441 28.5861 38.093L28.9876 34.9861ZM27.2857 32.9012C26.2086 32.26 24.8661 33.1418 25.0268 34.385L25.5391 38.3493C25.6314 39.0639 26.0234 39.7055 26.617 40.1139C27.4827 40.7093 28.626 40.7093 29.4917 40.1139C30.0853 39.7055 30.4773 39.0639 30.5696 38.3493L31.0819 34.385C31.2426 33.1418 29.9001 32.26 28.823 32.9012C28.3493 33.1831 27.7594 33.1831 27.2857 32.9012ZM26.8145 43.1552L26.873 43.684L26.8756 43.7068L26.9898 44.7379C27.021 45.0198 27.1628 45.2779 27.384 45.4554C27.7756 45.7696 28.3331 45.7696 28.7247 45.4554C28.9459 45.2779 29.0877 45.0198 29.1189 44.7379L29.2331 43.7068L29.2356 43.684L29.2942 43.1552L29.3721 42.4519C29.4305 41.9252 28.8417 41.5746 28.4065 41.8769C28.1947 42.0239 27.914 42.0239 27.7022 41.8769C27.267 41.5746 26.6782 41.9252 26.7366 42.4519L26.8145 43.1552Z" fill="white"/>
<defs>
<linearGradient id="paint0_linear_1972_1442" x1="28" y1="0" x2="28" y2="56" gradientUnits="userSpaceOnUse">
<stop stop-color="#5742D4"/>
<stop offset="1" stop-color="#CC39E7"/>
</linearGradient>
</defs>
</svg>
