<svg width="56" height="56" viewBox="0 0 56 56" fill="none" xmlns="http://www.w3.org/2000/svg">
<path d="M27.9514 0C12.5632 0 0 12.5632 0 28.0486C0 43.4345 12.5632 56 27.9514 56C43.3395 56 56 43.4424 56 28.0486C56 12.5632 43.4368 0 27.9514 0Z" fill="url(#paint0_linear_10378_98120)"/>
<path d="M37.83 46.437C41.4226 46.437 44.335 43.5246 44.335 39.932C44.335 36.3393 41.4226 33.4269 37.83 33.4269C34.2374 33.4269 31.325 36.3393 31.325 39.932C31.325 43.5246 34.2374 46.437 37.83 46.437Z" fill="white"/>
<path d="M37.9206 43.9232C36.692 43.9232 35.7567 43.582 35.1149 42.8994C34.4731 42.2168 34.1514 41.2477 34.1499 39.9919C34.1405 39.4205 34.2404 38.8526 34.444 38.3187C34.6237 37.8525 34.8984 37.4287 35.2507 37.0743C35.5972 36.7329 36.0136 36.4708 36.4713 36.3061C36.9636 36.1274 37.484 36.0385 38.0077 36.0436C38.2996 36.0413 38.5911 36.0652 38.8788 36.1149C39.1108 36.1553 39.3401 36.2097 39.5655 36.2778C39.7335 36.3288 39.8973 36.3927 40.0553 36.469C40.1866 36.5346 40.2816 36.5821 40.3393 36.6217L39.8495 37.994C39.5906 37.8605 39.3183 37.7547 39.0372 37.6784C38.6941 37.5871 38.3401 37.5433 37.985 37.5483C37.7235 37.5482 37.4638 37.5921 37.2169 37.6784C36.9664 37.7658 36.7393 37.9094 36.5528 38.0981C36.3471 38.3112 36.1893 38.5657 36.0901 38.8448C35.9648 39.2014 35.9054 39.5778 35.9147 39.9557C35.9116 40.2842 35.9496 40.6118 36.0279 40.9309C36.0948 41.2139 36.2208 41.4796 36.3978 41.7104C36.5764 41.9343 36.8066 42.1117 37.0687 42.2274C37.3849 42.3632 37.727 42.4284 38.071 42.4186C38.2932 42.4203 38.5151 42.4055 38.7351 42.3745C38.9111 42.3498 39.0856 42.3155 39.2578 42.2715C39.3964 42.2389 39.5322 42.1954 39.6639 42.1414C39.777 42.0916 39.8902 42.0441 39.9796 42L40.4479 43.3576C40.1283 43.5348 39.7856 43.6669 39.4297 43.7501C38.9362 43.8722 38.429 43.9304 37.9206 43.9232Z" fill="url(#paint1_linear_10378_98120)"/>
<path d="M44.3283 16.8679C44.2593 17.3072 44.0611 17.716 43.7589 18.0422C43.4566 18.3684 43.0641 18.5972 42.6313 18.6995L39.1639 19.5548C38.8313 20.2632 38.4264 20.9354 37.9556 21.5606C37.8828 21.6669 37.7893 21.7574 37.6807 21.8267C37.5721 21.896 37.4507 21.9427 37.3236 21.9641C37.1965 21.9854 37.0665 21.9808 36.9412 21.9507C36.8159 21.9206 36.698 21.8656 36.5945 21.7889C36.491 21.7121 36.404 21.6153 36.3388 21.5042C36.2736 21.3931 36.2314 21.27 36.2148 21.1423C36.1983 21.0145 36.2076 20.8847 36.2424 20.7606C36.2771 20.6366 36.3365 20.5208 36.417 20.4202C37.2633 19.2776 37.554 18.4438 37.5574 18.4348C37.6096 18.2824 37.699 18.1455 37.8176 18.0364C37.9361 17.9273 38.08 17.8496 38.2362 17.8103L42.1743 16.8396C42.2411 16.8228 42.3015 16.7868 42.3482 16.7361C42.3949 16.6854 42.4258 16.6222 42.4371 16.5543C42.4483 16.4863 42.4396 16.4165 42.4118 16.3534C42.384 16.2904 42.3384 16.2368 42.2806 16.1993L39.9592 14.7082C39.5395 14.4695 38.9919 14.2557 38.803 14.2557C38.704 14.2584 38.606 14.2759 38.5122 14.3077C38.4964 14.3144 38.4801 14.3201 38.4636 14.3247C37.8961 14.5602 37.4108 14.9581 37.0687 15.4685C36.8453 15.8096 36.5871 16.1265 36.2982 16.4142C35.4056 17.3193 34.2936 18.4563 32.0977 18.0716C30.3758 17.7707 29.4402 16.8724 28.3972 15.7298L28.3881 15.7207C27.095 14.2681 25.923 13.7285 24.062 13.7285C21.2982 13.7285 18.9009 15.6257 18.4835 18.1406C18.4438 18.4027 18.4237 18.6674 18.4235 18.9325C18.4215 19.9519 18.7167 20.9497 19.2731 21.8038C19.3453 21.9091 19.3957 22.0277 19.4214 22.1528C19.447 22.2778 19.4475 22.4067 19.4227 22.5319C19.3978 22.6571 19.3483 22.7761 19.2768 22.8819C19.2054 22.9876 19.1135 23.0781 19.0067 23.1479C18.8998 23.2176 18.7801 23.2654 18.6545 23.2883C18.5289 23.3111 18.4 23.3087 18.2754 23.2811C18.1508 23.2535 18.033 23.2012 17.9288 23.1274C17.8247 23.0537 17.7363 22.9598 17.6689 22.8514C17.2846 22.2618 16.9896 21.6187 16.7933 20.9429C14.7942 24.3821 12.8959 26.2329 10.8448 26.8053C10.3898 26.9338 9.91933 26.9992 9.44653 26.9999C8.11837 26.9999 6.72459 26.4965 5.22107 25.4806C5.10843 25.4141 5.01061 25.3252 4.93362 25.2194C4.85664 25.1136 4.80212 24.9932 4.77344 24.8656C4.74476 24.738 4.74251 24.6058 4.76684 24.4773C4.79117 24.3487 4.84156 24.2266 4.91491 24.1182C4.98826 24.0099 5.08301 23.9178 5.19333 23.8474C5.30364 23.7771 5.42719 23.7302 5.55635 23.7094C5.68551 23.6887 5.81755 23.6946 5.94434 23.7268C6.07112 23.759 6.18997 23.8168 6.29356 23.8967C7.86156 24.9568 9.14447 25.2973 10.329 24.967C12.4456 24.3764 14.5974 21.573 17.0999 16.1552C17.1066 16.1405 17.1134 16.128 17.1214 16.1133C17.586 15.1077 18.2772 14.2233 19.1407 13.5294C20.5371 12.4131 22.2732 11.8079 24.0608 11.8143C26.4502 11.8143 28.1709 12.6006 29.8136 14.4435C30.8001 15.5228 31.3816 16.0024 32.4258 16.1857C33.5797 16.3871 34.0537 15.9662 34.9316 15.0725C35.1289 14.8769 35.3056 14.6616 35.4588 14.4299C35.644 14.1475 35.8587 13.8854 36.0991 13.6482C35.9488 13.5293 35.8077 13.3992 35.6771 13.259C35.2829 12.8136 34.9815 12.294 34.7908 11.7306C34.6 11.1673 34.5237 10.5715 34.5662 9.9782C34.5756 9.85253 34.6097 9.72994 34.6665 9.61746C34.7233 9.50498 34.8018 9.40481 34.8974 9.3227C34.993 9.24058 35.1038 9.17812 35.2236 9.13891C35.3433 9.09969 35.4697 9.08448 35.5953 9.09415C35.7209 9.10382 35.8435 9.13818 35.9558 9.19527C36.0682 9.25235 36.1681 9.33103 36.25 9.42681C36.3319 9.52259 36.3941 9.63358 36.4331 9.75343C36.472 9.87328 36.4869 9.99964 36.477 10.1253C36.4289 10.7932 36.6473 11.453 37.0845 11.9603C37.209 12.0949 37.3555 12.2074 37.5178 12.2929C37.4194 11.3708 37.7656 10.3413 38.5496 9.44082C38.6274 9.33287 38.7268 9.24231 38.8415 9.1749C38.9562 9.10749 39.0837 9.06471 39.2159 9.0493C39.3481 9.03388 39.482 9.04616 39.6092 9.08535C39.7363 9.12455 39.8539 9.1898 39.9545 9.27695C40.0551 9.3641 40.1364 9.47123 40.1932 9.59153C40.2501 9.71183 40.2813 9.84266 40.2848 9.97568C40.2883 10.1087 40.2641 10.241 40.2137 10.3641C40.1633 10.4873 40.0878 10.5986 39.992 10.6909C39.5168 11.2362 39.2102 11.9942 39.5723 12.4614C40.0457 12.6085 40.5011 12.8085 40.9298 13.0576L40.9683 13.0814L43.3101 14.5849C43.6876 14.821 43.9861 15.1644 44.1675 15.5711C44.3489 15.9777 44.4049 16.4292 44.3283 16.8679ZM34.8603 23.0335C34.8609 23.0302 34.8609 23.0267 34.8603 23.0234C34.8586 23.0134 34.8564 23.0036 34.8536 22.994C34.8536 22.9747 34.8468 22.9555 34.8422 22.9374L34.8287 22.8921C34.823 22.8774 34.8196 22.8639 34.814 22.8491C34.8083 22.8344 34.8004 22.8163 34.7936 22.8005C34.789 22.7881 34.7837 22.7761 34.7778 22.7643C34.7698 22.7473 34.7608 22.7315 34.7517 22.7156C34.7427 22.6998 34.7404 22.693 34.7336 22.6817L34.7031 22.6365L34.6805 22.6048C34.6703 22.5901 34.6578 22.5765 34.6465 22.5629C34.6388 22.5526 34.6305 22.5428 34.6216 22.5335L34.5809 22.4928L34.556 22.4679L34.504 22.426L34.4836 22.4102C34.4607 22.3931 34.437 22.3772 34.4123 22.3627H34.4067C34.2548 22.2727 34.0809 22.2265 33.9044 22.2292H33.8614H33.8241L33.7698 22.2303H33.763L33.729 22.2371L33.6781 22.2484L33.6306 22.2631C33.6159 22.2631 33.6023 22.271 33.5887 22.2767L33.5401 22.2971L33.5028 22.3129L33.4575 22.3378L33.4202 22.3582L33.3806 22.3842L33.3421 22.4113L33.3082 22.4385L33.2708 22.4713L33.2403 22.5007L33.2052 22.538C33.1952 22.5492 33.1858 22.5609 33.177 22.5731L33.1464 22.6104L33.117 22.6557C33.1099 22.6647 33.1035 22.6741 33.0978 22.684C32.6452 23.4397 31.0263 24.5337 29.2773 24.5337C28.7077 24.537 28.1392 24.4832 27.5803 24.373C27.5928 24.3323 27.6052 24.2916 27.6165 24.2497C27.9517 23.003 27.9443 21.689 27.5951 20.4462C27.5629 20.3229 27.5064 20.2073 27.429 20.106C27.3516 20.0048 27.2548 19.92 27.1442 19.8567C27.0336 19.7933 26.9115 19.7526 26.7851 19.7371C26.6586 19.7215 26.5302 19.7313 26.4076 19.7659C26.2849 19.8005 26.1704 19.8592 26.0708 19.9386C25.9711 20.0181 25.8883 20.1165 25.8271 20.2284C25.766 20.3402 25.7277 20.4631 25.7147 20.5898C25.7016 20.7166 25.714 20.8447 25.751 20.9666C26.007 21.8775 26.0121 22.8407 25.7657 23.7542C25.0224 26.5282 22.193 28.1901 19.4575 27.457C19.3156 27.419 19.1669 27.4141 19.0228 27.4428C18.8788 27.4715 18.7433 27.5329 18.6268 27.6224C18.5103 27.7119 18.4159 27.827 18.3511 27.9588C18.2862 28.0906 18.2525 28.2355 18.2527 28.3824V28.4525C18.2526 28.5866 18.2808 28.7192 18.3353 28.8417L22.2304 37.6252C22.306 37.7941 22.429 37.9373 22.5844 38.0377C22.7398 38.1381 22.921 38.1913 23.106 38.1909C23.2397 38.1912 23.372 38.163 23.494 38.1083C23.7262 38.0053 23.908 37.8143 23.9994 37.5774C24.0908 37.3404 24.0844 37.0769 23.9816 36.8446L20.7404 29.5476H20.7597C21.9692 29.5421 23.1573 29.2283 24.2118 28.6359C25.2663 28.0434 26.1524 27.1918 26.7862 26.1616C27.598 26.3603 28.4313 26.4579 29.2671 26.4524C30.67 26.4524 32.0343 25.9603 33.0853 25.2758C32.988 26.9219 32.3454 27.8778 31.8793 28.5645C31.8031 28.6683 31.7486 28.7864 31.7192 28.9118C31.6897 29.0371 31.6858 29.1671 31.7077 29.294C31.7296 29.4208 31.7769 29.542 31.8468 29.6502C31.9166 29.7583 32.0075 29.8513 32.1142 29.9235C32.2208 29.9957 32.3409 30.0456 32.4672 30.0703C32.5936 30.095 32.7237 30.0939 32.8496 30.0672C32.9756 30.0405 33.0948 29.9886 33.2002 29.9147C33.3057 29.8407 33.3951 29.7463 33.4632 29.637C34.1601 28.6064 35.4565 26.6888 34.8547 23.0358L34.8603 23.0335Z" fill="white"/>
<defs>
<linearGradient id="paint0_linear_10378_98120" x1="47.6803" y1="8.30158" x2="8.41471" y2="47.5672" gradientUnits="userSpaceOnUse">
<stop stop-color="#EE2A7B"/>
<stop offset="1" stop-color="#92278F"/>
</linearGradient>
<linearGradient id="paint1_linear_10378_98120" x1="2868.47" y1="1858.07" x2="1596.63" y2="3098.01" gradientUnits="userSpaceOnUse">
<stop stop-color="#EE2A7B"/>
<stop offset="1" stop-color="#92278F"/>
</linearGradient>
</defs>
</svg>
