<svg width="58" height="58" viewBox="0 0 58 58" fill="none" xmlns="http://www.w3.org/2000/svg">
<path d="M28.9496 0C13.0122 0 0 13.0122 0 29.0504C0 44.9878 13.0122 58 28.9496 58C44.887 58 58 44.9878 58 29.0504C58 13.0122 44.9878 0 28.9496 0Z" fill="url(#paint0_linear)"/>
<path d="M37.12 15.1304H20.9809C17.8539 15.1304 15.2313 17.753 15.2313 20.88V37.0191C15.2313 40.1461 17.8539 42.7687 20.9809 42.7687H37.12C40.247 42.7687 42.8696 40.1461 42.8696 37.0191V20.88C42.8696 17.753 40.247 15.1304 37.12 15.1304ZM21.9896 19.8713C24.007 19.8713 25.6209 21.4852 25.6209 23.5026C25.6209 25.52 24.1078 27.2348 21.9896 27.2348C19.9722 27.2348 18.3583 25.6209 18.3583 23.6035C18.3583 21.5861 19.9722 19.8713 21.9896 19.8713ZM22.1913 40.247L17.4505 35.5061L22.1913 30.7652L26.9322 35.5061L22.1913 40.247ZM36.1113 38.1287H31.8748L36.0105 31.3704L40.247 38.1287H36.1113ZM37.927 24.6122L39.0365 28.1426L36.0105 25.9235L32.9844 28.1426L34.0939 24.6122L31.0678 22.393H34.8L35.9096 18.8626L37.0191 22.393H40.7513L37.927 24.6122Z" fill="white"/>
<defs>
<linearGradient id="paint0_linear" x1="47.0503" y1="10.9496" x2="9.76195" y2="48.2378" gradientUnits="userSpaceOnUse">
<stop stop-color="#ED1C24"/>
<stop offset="1" stop-color="#BE1E2D"/>
</linearGradient>
</defs>
</svg>
