<svg width="58" height="58" viewBox="0 0 58 58" fill="none" xmlns="http://www.w3.org/2000/svg">
<g clip-path="url(#clip0)">
<path d="M28.7 0C12.9 0 0 12.9 0 28.8C0 44.6 12.9 57.5 28.7 57.5C44.5 57.5 57.5 44.6 57.5 28.8C57.5 12.9 44.6 0 28.7 0Z" fill="url(#paint0_linear)"/>
<path d="M41.4 20.6C41 20.6 40.5 20.7 40.1 20.8L38.6 18.7C39.7 17.8 40.4 16.6 40.7 15.1V13.2C40.2 10.5 37.9 8.4 35.1 8.4C32.3 8.4 29.9 10.5 29.5 13.2V15.1C29.7 16.5 30.5 17.7 31.5 18.6L30 20.7H29.9C29.8 20.7 29.7 20.7 29.6 20.6C29.3 20.5 29.1 20.5 28.8 20.5C28.6 20.5 28.5 20.5 28.3 20.5H28.2C28 20.5 27.8 20.6 27.6 20.6L26.2 18.5C27.3 17.6 28 16.4 28.3 14.9V13C27.8 10.3 25.5 8.2 22.7 8.2C19.9 8.2 17.5 10.3 17.1 13V14.9C17.3 16.3 18.1 17.5 19.1 18.4L17.6 20.5C17.2 20.4 16.8 20.3 16.4 20.3C14 20.3 12 22.3 12 24.8C12 27.3 14 29.3 16.4 29.3C18.8 29.3 20.8 27.3 20.8 24.8C20.8 23.5 20.2 22.3 19.3 21.4L20.8 19.3C21.4 19.5 22.1 19.7 22.7 19.7C23.4 19.7 24 19.6 24.6 19.4L26 21.5C25.1 22.3 24.5 23.5 24.5 24.9C24.5 27.1 26 28.9 28.1 29.3C28.4 29.4 28.7 29.4 29 29.4C31.4 29.4 33.4 27.4 33.4 24.9C33.4 23.5 32.8 22.3 31.8 21.5L33.3 19.4C33.9 19.6 34.6 19.8 35.2 19.8C35.9 19.8 36.5 19.7 37.1 19.5L38.6 21.6C37.7 22.4 37.1 23.6 37.1 25C37.1 27.5 39.1 29.5 41.5 29.5C43.9 29.5 45.9 27.5 45.9 25C45.8 22.6 43.9 20.6 41.4 20.6ZM16.3 27.3C15.1 27.3 14.1 26.3 14.1 25.1C14.1 23.9 15.1 22.9 16.3 22.9C17.5 22.9 18.5 23.9 18.5 25.1C18.5 26.3 17.5 27.3 16.3 27.3ZM22.7 17.3C21 17.3 19.7 15.9 19.7 14.2C19.7 12.5 21.1 11.1 22.7 11.1C24.4 11.1 25.7 12.5 25.7 14.2C25.7 15.9 24.3 17.3 22.7 17.3ZM26.7 25.1C26.7 23.9 27.7 22.9 28.8 22.9C30 22.9 30.9 23.9 30.9 25.1C30.9 26.3 29.9 27.3 28.8 27.3C27.6 27.3 26.7 26.3 26.7 25.1ZM35.2 17.3C33.5 17.3 32.2 15.9 32.2 14.2C32.2 12.5 33.6 11.1 35.2 11.1C36.9 11.1 38.2 12.5 38.2 14.2C38.2 15.9 36.9 17.3 35.2 17.3ZM41.3 27.3C40.1 27.3 39.1 26.3 39.1 25.1C39.1 23.9 40.1 22.9 41.3 22.9C42.5 22.9 43.5 23.9 43.5 25.1C43.5 26.3 42.5 27.3 41.3 27.3Z" fill="white"/>
<g opacity="0.5">
<path opacity="0.5" d="M16.2999 39C16.6999 39 17.1999 38.9 17.5999 38.8L19.0999 40.9C17.9999 41.8 17.2999 43 16.9999 44.5V46.4C17.4999 49.1 19.7999 51.2 22.5999 51.2C25.3999 51.2 27.7999 49.1 28.1999 46.4V44.5C27.9999 43.1 27.1999 41.9 26.1999 41L27.6999 38.9H27.7999C27.8999 38.9 27.9999 38.9 28.0999 39C28.3999 39.1 28.5999 39.1 28.8999 39.1C29.0999 39.1 29.1999 39.1 29.3999 39.1H29.4999C29.6999 39.1 29.8999 39 30.0999 39L31.4999 41.1C30.3999 42 29.6999 43.2 29.3999 44.7V46.6C29.8999 49.3 32.1999 51.4 34.9999 51.4C37.7999 51.4 40.1999 49.3 40.5999 46.6V44.7C40.3999 43.3 39.5999 42.1 38.5999 41.2L40.0999 39.1C40.4999 39.2 40.8999 39.3 41.2999 39.3C43.6999 39.3 45.6999 37.3 45.6999 34.8C45.6999 32.3 43.6999 30.3 41.2999 30.3C38.9999 30 36.9999 32 36.9999 34.5C36.9999 35.8 37.5999 37 38.4999 37.9L36.9999 40C36.3999 39.8 35.6999 39.6 35.0999 39.6C34.3999 39.6 33.7999 39.7 33.1999 39.9L31.7999 37.8C32.6999 37 33.2999 35.8 33.2999 34.4C33.2999 32.2 31.7999 30.4 29.6999 30C29.3999 30 29.0999 30 28.7999 30C26.3999 30 24.3999 32 24.3999 34.5C24.3999 35.9 24.9999 37.1 25.9999 37.9L24.4999 40C23.8999 39.8 23.1999 39.6 22.5999 39.6C21.8999 39.6 21.2999 39.7 20.6999 39.9L19.1999 37.8C20.0999 37 20.6999 35.8 20.6999 34.4C20.6999 31.9 18.6999 29.9 16.2999 29.9C13.8999 29.9 11.8999 31.9 11.8999 34.4C11.8999 37 13.7999 39 16.2999 39ZM41.3999 32.2C42.5999 32.2 43.5999 33.2 43.5999 34.4C43.5999 35.6 42.5999 36.6 41.3999 36.6C40.1999 36.6 39.1999 35.6 39.1999 34.4C39.1999 33.2 40.1999 32.2 41.3999 32.2ZM34.9999 42.3C36.6999 42.3 37.9999 43.7 37.9999 45.4C37.9999 47.1 36.5999 48.5 34.9999 48.5C33.2999 48.5 31.9999 47.1 31.9999 45.4C31.9999 43.6 33.3999 42.3 34.9999 42.3ZM30.9999 34.5C30.9999 35.7 29.9999 36.7 28.8999 36.7C27.6999 36.7 26.7999 35.7 26.7999 34.5C26.7999 33.3 27.7999 32.3 28.8999 32.3C30.0999 32.3 30.9999 33.3 30.9999 34.5ZM22.4999 42.3C24.1999 42.3 25.4999 43.7 25.4999 45.4C25.4999 47.1 24.0999 48.5 22.4999 48.5C20.7999 48.5 19.4999 47.1 19.4999 45.4C19.4999 43.6 20.7999 42.3 22.4999 42.3ZM16.3999 32.2C17.5999 32.2 18.5999 33.2 18.5999 34.4C18.5999 35.6 17.5999 36.6 16.3999 36.6C15.1999 36.6 14.1999 35.6 14.1999 34.4C14.1999 33.2 15.1999 32.2 16.3999 32.2Z" fill="white"/>
</g>
</g>
<defs>
<linearGradient id="paint0_linear" x1="48.9669" y1="8.5329" x2="8.6495" y2="48.8503" gradientUnits="userSpaceOnUse">
<stop stop-color="#EE2A7B"/>
<stop offset="1" stop-color="#92278F"/>
</linearGradient>
<clipPath id="clip0">
<path d="M0 0H57.5V57.5H0V0Z" fill="white"/>
</clipPath>
</defs>
</svg>
