<svg width="58" height="58" viewBox="0 0 58 58" fill="none" xmlns="http://www.w3.org/2000/svg">
<path d="M28.9496 0C13.0122 0 0 13.0122 0 29.0504C0 44.9878 13.0122 58 28.9496 58C44.887 58 58 44.9878 58 29.0504C58 13.0122 44.9878 0 28.9496 0Z" fill="url(#paint0_linear)"/>
<path d="M32.5809 30.8661L30.5635 29.4539C30.7652 28.8487 30.8661 28.2435 30.8661 27.5374C30.8661 26.8313 30.7652 26.2261 30.5635 25.7217L32.5809 24.3096C33.3878 25.2174 34.4974 25.8226 35.8087 25.8226C38.2296 25.8226 40.1461 23.9061 40.1461 21.4852C40.1461 19.0643 38.2296 17.1478 35.8087 17.1478C33.3878 17.1478 31.4713 19.0643 31.4713 21.4852C31.4713 21.8887 31.5722 22.2922 31.673 22.6956L29.6556 24.1078C28.8487 23.0991 27.5374 22.2922 26.1252 22.0904V19.6696C28.1426 19.2661 29.5548 17.5513 29.5548 15.433C29.5548 13.0122 27.6383 11.0956 25.2174 11.0956C22.7965 11.0956 20.88 13.0122 20.88 15.433C20.88 17.4504 22.2922 19.1652 24.3096 19.6696V22.0904C21.6869 22.4939 19.6696 24.8139 19.6696 27.5374C19.6696 30.2609 21.6869 32.5809 24.4104 32.9843V35.6069C22.4939 36.0104 20.9809 37.7252 20.9809 39.8435C20.9809 42.2643 22.8974 44.1809 25.3183 44.1809C27.7391 44.1809 29.6556 42.2643 29.6556 39.8435C29.6556 37.8261 28.1426 36.0104 26.2261 35.6069V32.9843C27.6383 32.7826 28.8487 32.0765 29.6556 30.9669L31.673 32.3791C31.5722 32.7826 31.4713 33.1861 31.4713 33.5896C31.4713 36.0104 33.3878 37.9269 35.8087 37.9269C38.2296 37.9269 40.1461 36.0104 40.1461 33.5896C40.1461 31.1687 38.2296 29.2522 35.8087 29.2522C34.5983 29.353 33.3878 29.9583 32.5809 30.8661ZM35.9096 19.3669C37.12 19.3669 38.0278 20.3756 38.0278 21.4852C38.0278 22.6956 37.0191 23.6035 35.9096 23.6035C34.6991 23.6035 33.6904 22.5948 33.6904 21.4852C33.6904 20.3756 34.6991 19.3669 35.9096 19.3669ZM23.0991 15.3322C23.0991 14.1217 24.1078 13.2139 25.3183 13.2139C26.5287 13.2139 27.5374 14.2226 27.5374 15.3322C27.5374 16.5426 26.5287 17.4504 25.3183 17.4504C24.1078 17.4504 23.0991 16.5426 23.0991 15.3322ZM27.5374 39.8435C27.5374 41.0539 26.5287 41.9617 25.3183 41.9617C24.1078 41.9617 23.0991 40.953 23.0991 39.8435C23.0991 38.633 24.1078 37.7252 25.3183 37.7252C26.5287 37.6243 27.5374 38.633 27.5374 39.8435ZM25.3183 30.3617C23.7043 30.3617 22.2922 29.0504 22.2922 27.4365C22.2922 25.8226 23.6035 24.5113 25.3183 24.5113C26.9322 24.5113 28.3443 25.8226 28.3443 27.4365C28.3443 29.0504 26.9322 30.3617 25.3183 30.3617ZM35.9096 35.8087C34.6991 35.8087 33.6904 34.8 33.6904 33.6904C33.6904 32.48 34.6991 31.5722 35.9096 31.5722C37.12 31.5722 38.1287 32.5809 38.1287 33.6904C38.0278 34.8 37.12 35.8087 35.9096 35.8087Z" fill="white"/>
<defs>
<linearGradient id="paint0_linear" x1="49.3927" y1="8.6071" x2="8.72471" y2="49.2751" gradientUnits="userSpaceOnUse">
<stop stop-color="#EE2A7B"/>
<stop offset="1" stop-color="#92278F"/>
</linearGradient>
</defs>
</svg>
