<svg width="58" height="58" viewBox="0 0 58 58" fill="none" xmlns="http://www.w3.org/2000/svg">
<path d="M28.9496 0C13.0122 0 0 13.0122 0 29.0504C0 44.9878 13.0122 58 28.9496 58C44.887 58 58 44.9878 58 29.0504C58 13.0122 44.9878 0 28.9496 0Z" fill="#DCEAEF"/>
<path d="M30.5635 25.7218C16.7443 24.3096 12.2052 36.5148 12.2052 36.5148C15.1304 32.8835 17.753 30.7653 20.3756 29.5548C19.9722 30.3618 19.6695 31.3705 19.7704 32.48C19.9722 35.2035 22.1913 37.4226 24.9148 37.6244C28.1426 37.8261 30.8661 35.3044 30.8661 32.0766C30.8661 31.0679 30.5635 30.16 30.16 29.3531C29.9582 29.8574 29.5548 30.16 28.9495 30.0592C28.4452 29.9583 27.9409 29.5548 27.9409 28.9496V28.8487C27.9409 28.3444 28.4452 27.9409 29.0504 27.9409C31.0678 27.9409 33.0852 28.1426 35.3043 28.1426C44.08 28.2435 45.8956 22.1913 45.8956 22.1913C45.8956 22.1913 43.9791 27.0331 30.5635 25.7218ZM25.2174 34.1948C24.0069 34.1948 22.9982 33.1861 22.9982 31.9757C22.9982 30.7653 24.0069 29.7566 25.2174 29.7566C26.4278 29.7566 27.4365 30.7653 27.4365 31.9757C27.4365 33.287 26.4278 34.1948 25.2174 34.1948Z" fill="#1B75BC"/>
<path d="M12.6086 32.0765C12.6086 32.0765 18.3582 16.0383 41.1547 24.1078C41.1547 24.1078 22.4939 17.1478 12.6086 32.0765Z" fill="#1B75BC"/>
</svg>
