<svg width="58" height="58" viewBox="0 0 58 58" fill="none" xmlns="http://www.w3.org/2000/svg">
<path d="M28.9496 0C13.0122 0 0 13.0122 0 29.0504C0 44.9878 13.0122 58 28.9496 58C44.887 58 58 44.9878 58 29.0504C58 13.0122 44.9878 0 28.9496 0Z" fill="url(#paint0_linear)"/>
<path fill-rule="evenodd" clip-rule="evenodd" d="M26.1252 35.7078C26.1252 35.7078 26.2261 38.1287 23.7043 42.1635C21.1826 46.1983 16.8452 49.3252 16.8452 49.3252C16.8452 49.3252 24.9148 49.9305 28.2435 43.0713C31.5722 36.2122 27.6383 30.6644 27.6383 30.6644C27.6383 30.6644 30.4626 31.8748 30.967 37.0191C31.4713 42.1635 28.2435 47.4087 28.2435 47.4087C28.2435 47.4087 34.6991 47.4087 38.4313 38.9357C42.1635 30.4626 41.1548 23.6035 38.5322 22.9983C36.1113 22.4939 32.8835 23.8052 32.3791 27.2348C31.9756 26.0244 30.967 24.1078 29.0504 23.3009C26.0243 22.0904 24.3096 22.7965 24.1078 23.2C23.9061 23.6035 23.7043 24.4104 23.7043 25.4191C23.7043 26.5287 23.9061 27.2348 23.9061 27.2348C23.9061 27.2348 25.0156 27.5374 25.8226 28.4452C26.6296 29.3531 26.7304 29.9583 26.7304 29.9583C26.7304 29.9583 26.0243 29.4539 24.8139 28.7478C23.6035 28.1426 22.9983 28.2435 22.9983 28.2435C22.9983 28.2435 19.5687 29.9583 18.2574 35.2035C17.047 40.3478 18.56 45.5931 18.56 45.5931C18.56 45.5931 23.2 43.5757 26.1252 35.7078ZM32.1774 17.4504C32.1774 17.4504 30.16 17.2487 27.84 18.1565C25.52 19.0643 21.7878 18.7617 21.4852 18.3583C21.1826 17.9548 20.4765 18.6609 21.4852 19.7704C23.2 21.687 28.5461 19.9722 32.1774 23.3009C35.8087 19.9722 41.1548 21.687 42.8696 19.7704C43.8783 18.6609 43.1722 17.8539 42.8696 18.3583C42.567 18.7617 38.8348 19.0643 36.5148 18.1565C34.0939 17.2487 32.1774 17.4504 32.1774 17.4504ZM28.1426 24.6122C28.9496 24.6122 29.5548 25.2174 29.5548 26.0244C29.5548 26.8313 28.9496 27.4365 28.1426 27.4365C27.3356 27.4365 26.7304 26.8313 26.7304 26.0244C26.7304 25.2174 27.4365 24.6122 28.1426 24.6122ZM36.8174 24.6122C37.6243 24.6122 38.2296 25.2174 38.2296 26.0244C38.2296 26.8313 37.6243 27.4365 36.8174 27.4365C36.0104 27.4365 35.4052 26.8313 35.4052 26.0244C35.4052 25.2174 36.0104 24.6122 36.8174 24.6122Z" fill="white"/>
<path d="M4.74092 29.1513C4.74092 28.7478 4.84179 28.3443 4.84179 27.8399C5.04353 25.2173 5.64875 22.6956 6.65745 20.2747C9.68353 13.4156 14.8279 8.7756 22.0905 6.55647C24.6122 5.74951 27.2348 5.4469 29.8574 5.54777C36.414 5.85038 41.9618 8.27125 46.6018 13.0121C49.6279 16.1391 51.6453 19.8713 52.7548 24.2086C53.3601 26.8313 53.5618 29.4539 53.2592 32.0765C52.5531 38.3304 49.9305 43.4747 45.1896 47.6104C42.3653 50.1321 38.9357 51.746 35.2035 52.4521H35.1027C35.2035 52.4521 35.2035 52.3513 35.3044 52.3513C35.4053 52.3513 35.5061 52.2504 35.5061 52.2504C41.1548 50.0313 45.3914 46.1982 48.1148 40.7513C49.8296 37.2208 50.6366 33.3878 50.334 29.4539C49.8296 22.8973 46.9044 17.6521 41.6592 13.6173C38.9357 11.4991 35.8087 10.1878 32.3792 9.68343C30.2609 9.27995 28.0418 9.27995 25.8227 9.58256C22.1914 10.0869 18.9635 11.3982 16.0383 13.6173C12.7096 16.1391 10.1879 19.3669 8.67484 23.3008C7.86788 25.5199 7.36353 27.7391 7.26266 30.0591C7.06092 35.4052 8.57397 40.146 11.6001 44.4834C13.3148 46.9043 15.534 48.8208 17.9548 50.4347C18.0557 50.5356 18.1566 50.5356 18.1566 50.6365C17.9548 50.5356 17.6522 50.4347 17.4505 50.3339C13.5166 48.4173 10.3896 45.593 8.06962 41.8608C6.55658 39.3391 5.44701 36.7165 4.94266 33.7913C4.74092 32.6817 4.64005 31.5721 4.53918 30.3617C4.53918 30.2608 4.53918 30.0591 4.53918 29.9582C4.74092 29.7565 4.74092 29.4539 4.74092 29.1513Z" fill="white"/>
<defs>
<linearGradient id="paint0_linear" x1="-11.5796" y1="61.5002" x2="62.0458" y2="2.53324" gradientUnits="userSpaceOnUse">
<stop stop-color="#80D4F7"/>
<stop offset="0.4368" stop-color="#1B75BC"/>
<stop offset="1" stop-color="#172D55"/>
</linearGradient>
</defs>
</svg>
