<svg xmlns="http://www.w3.org/2000/svg" xmlns:xlink="http://www.w3.org/1999/xlink" viewBox="0 0 57.51 57.51"><defs><style>.cls-1{fill:url(#linear-gradient);}.cls-2{fill:#fff;}</style><linearGradient id="linear-gradient" x1="48.97" y1="8.53" x2="8.65" y2="48.85" gradientUnits="userSpaceOnUse"><stop offset="0" stop-color="#1b75bc"/><stop offset="0" stop-color="#ee2a7b"/><stop offset="1" stop-color="#92278f"/></linearGradient></defs><title>icon_kafka_connect</title><g id="Layer_2" data-name="Layer 2"><g id="Layer_1-2" data-name="Layer 1"><path class="cls-1" d="M28.75,0A28.76,28.76,0,1,0,57.51,28.76,28.78,28.78,0,0,0,28.75,0"/><path class="cls-2" d="M19.1,22.89A5.86,5.86,0,1,0,25,28.75,5.87,5.87,0,0,0,19.1,22.89Zm0,8.69a2.83,2.83,0,1,1,2.82-2.83A2.83,2.83,0,0,1,19.1,31.58Z"/><path class="cls-2" d="M37.37,15.08A4.9,4.9,0,1,0,42.27,20,4.89,4.89,0,0,0,37.37,15.08Zm0,7.26A2.37,2.37,0,1,1,39.73,20,2.37,2.37,0,0,1,37.37,22.34Z"/><path class="cls-2" d="M25.82,12.35a5.27,5.27,0,1,0,5.28,5.27A5.27,5.27,0,0,0,25.82,12.35Zm0,7.81a2.54,2.54,0,1,1,2.55-2.54A2.54,2.54,0,0,1,25.82,20.16Z"/><rect class="cls-2" x="19.31" y="21.56" width="6.06" height="2.12" transform="translate(-9.45 22.42) rotate(-45)"/><rect class="cls-2" x="29.49" y="17.52" width="4.27" height="2.12" transform="translate(5.89 -7.55) rotate(15)"/><path class="cls-2" d="M42.27,37.53a4.9,4.9,0,1,0-4.9,4.9A4.9,4.9,0,0,0,42.27,37.53Zm-2.54,0a2.36,2.36,0,1,1-2.36-2.36A2.36,2.36,0,0,1,39.73,37.53Z"/><path class="cls-2" d="M31.1,39.89a5.28,5.28,0,1,0-5.28,5.27A5.27,5.27,0,0,0,31.1,39.89Zm-2.73,0a2.55,2.55,0,1,1-2.55-2.54A2.55,2.55,0,0,1,28.37,39.89Z"/><rect class="cls-2" x="19.31" y="33.83" width="6.06" height="2.12" transform="translate(31.21 -5.58) rotate(45)"/><rect class="cls-2" x="29.49" y="37.86" width="4.27" height="2.12" transform="translate(-9 9.51) rotate(-15)"/></g></g></svg>