<svg width="56" height="56" viewBox="0 0 56 56" fill="none" xmlns="http://www.w3.org/2000/svg">
<path d="M27.9547 0C12.5689 0 0 12.5689 0 28.0453C0 43.4311 12.5689 56 27.9547 56C43.3406 56 56 43.4311 56 28.0453C56 12.5689 43.4311 0 27.9547 0Z" fill="url(#paint0_linear_9815_258)"/>
<path d="M47.9628 20.5177C47.889 20.9844 47.6763 21.4187 47.3517 21.7653C47.0272 22.112 46.6055 22.3552 46.1404 22.464L42.214 23.4206C41.8413 24.2124 41.3863 24.9637 40.8561 25.6623C40.7003 25.8614 40.4717 25.9923 40.2193 26.0268C39.9669 26.0613 39.711 25.9967 39.5062 25.8469C39.3015 25.697 39.1644 25.4739 39.1242 25.2253C39.084 24.9767 39.144 24.7224 39.2913 24.517C40.2479 23.24 40.5768 22.3061 40.5802 22.297C40.6331 22.1438 40.7239 22.0062 40.8444 21.8967C40.9649 21.7871 41.1112 21.7091 41.2701 21.6698L45.6736 20.5961C45.7674 20.5737 45.8524 20.5244 45.9181 20.4546C45.9838 20.3847 46.0273 20.2973 46.0431 20.2032C46.0589 20.1091 46.0464 20.0125 46.007 19.9254C45.9677 19.8383 45.9033 19.7646 45.8219 19.7133L43.22 18.0614C42.7808 17.8148 42.1289 17.5455 41.876 17.5455C41.2919 17.5455 40.3284 18.2068 39.8559 18.9294C39.6089 19.3006 39.3242 19.6459 39.0062 19.9599C37.9714 21.0006 36.7998 22.18 34.3945 21.763C32.4997 21.4358 31.4661 20.4553 30.3106 19.2055L30.3026 19.1964C28.8539 17.5887 27.4765 16.9627 25.3908 16.9627C22.252 16.9627 19.5271 19.0941 19.0557 21.9232C19.0106 22.2188 18.9879 22.5173 18.9878 22.8162C18.9855 23.9617 19.3212 25.083 19.9536 26.0429C20.0844 26.2565 20.1261 26.5118 20.0699 26.7552C20.0137 26.9985 19.8641 27.2108 19.6525 27.3471C19.441 27.4835 19.1841 27.5333 18.9361 27.486C18.6881 27.4388 18.4684 27.2982 18.3233 27.0939C17.8535 26.3868 17.5039 25.6084 17.2885 24.7897C15.0338 28.6981 12.8953 30.7875 10.5866 31.4249C10.0866 31.5631 9.56975 31.633 9.05054 31.6328C7.58575 31.6328 6.04393 31.0829 4.37909 29.9706C4.18281 29.821 4.05165 29.6031 4.01233 29.3613C3.97301 29.1194 4.0285 28.8719 4.16748 28.6691C4.30646 28.4662 4.51848 28.3234 4.76032 28.2697C5.00216 28.216 5.25562 28.2555 5.46906 28.38C7.24887 29.5684 8.70906 29.9491 10.0681 29.5753C12.4642 28.9151 14.8901 25.8032 17.7013 19.7838L17.7254 19.7383C18.2393 18.6406 19.0031 17.6751 19.9571 16.9172C21.5012 15.6963 23.4213 15.0336 25.3989 15.0392C28.0433 15.0392 29.9438 15.8981 31.7604 17.9125C32.8792 19.1225 33.5414 19.6622 34.7383 19.869C36.0766 20.0962 36.6193 19.6236 37.6265 18.6113C37.8514 18.3905 38.0528 18.1476 38.2278 17.8864C38.4517 17.5489 38.7141 17.2378 39.0096 16.9593C38.8124 16.8142 38.6292 16.6514 38.4624 16.473C37.6104 15.5641 37.1447 14.2007 37.2459 12.9157C37.2522 12.787 37.2846 12.6609 37.3412 12.5448C37.3977 12.4288 37.4773 12.3251 37.5751 12.24C37.673 12.1549 37.7871 12.0901 37.9108 12.0493C38.0345 12.0086 38.1652 11.9929 38.2951 12.003C38.4251 12.0131 38.5516 12.0489 38.6673 12.1082C38.783 12.1676 38.8855 12.2493 38.9686 12.3485C39.0518 12.4477 39.1139 12.5624 39.1514 12.6858C39.1888 12.8092 39.2009 12.9387 39.1867 13.0668C39.1579 13.445 39.2048 13.8251 39.3247 14.1854C39.4447 14.5456 39.6353 14.879 39.8857 15.1664C40.0717 15.3722 40.3041 15.5318 40.5641 15.6322C40.3928 14.5983 40.7642 13.4144 41.6713 12.3851C41.8407 12.1927 42.0805 12.0747 42.338 12.057C42.5954 12.0393 42.8494 12.1234 43.0441 12.2908C43.2388 12.4582 43.3583 12.6951 43.3762 12.9495C43.3941 13.2039 43.3089 13.455 43.1395 13.6474C42.4497 14.4268 42.2818 15.2664 42.6877 15.7538C42.9518 15.8302 43.2104 15.9243 43.4615 16.0356C43.7366 16.144 44.002 16.2751 44.2548 16.4276L46.8739 18.0898C47.2796 18.3412 47.5999 18.7067 47.7939 19.1393C47.9879 19.5719 48.0467 20.0519 47.9628 20.5177ZM37.3747 27.362C37.3752 27.3586 37.3752 27.3552 37.3747 27.3518C37.3747 27.3416 37.3747 27.3313 37.3678 27.32C37.3609 27.3086 37.3609 27.2836 37.3563 27.2654C37.3517 27.2473 37.3459 27.2336 37.3413 27.2188L37.3276 27.1779C37.3207 27.1598 37.3138 27.1427 37.3057 27.1257C37.2977 27.1086 37.2965 27.103 37.2908 27.0916C37.285 27.0802 37.2735 27.0575 37.2643 27.0416L37.2459 27.0098L37.2149 26.9621L37.193 26.9325C37.1815 26.9166 37.1689 26.903 37.1574 26.8894L37.1321 26.8598L37.0907 26.8189L37.0643 26.7939C37.0482 26.7793 37.0313 26.7657 37.0137 26.753L36.9918 26.7348C36.9697 26.7188 36.9467 26.704 36.9228 26.6905L36.9136 26.6837C36.7578 26.592 36.5788 26.5459 36.3974 26.5508H36.3618H36.3169H36.2652H36.2571L36.2192 26.5587L36.1709 26.569L36.1192 26.5849L36.0812 26.5974L36.0283 26.619L35.9938 26.6337L35.9456 26.6587L35.9099 26.6792L35.8674 26.7064L35.8306 26.7326L35.7949 26.761L35.757 26.7928C35.7455 26.803 35.7363 26.8132 35.7259 26.8235L35.6903 26.8598L35.6604 26.895L35.6305 26.9325L35.5995 26.9791L35.5811 27.0064C34.7682 28.3539 32.4882 29.0981 31.2235 29.0981C30.5459 29.1019 29.8698 29.0341 29.2068 28.8958C29.2298 28.8186 29.254 28.7413 29.2747 28.6629C29.6449 27.3018 29.637 25.8672 29.2517 24.5102C29.219 24.3864 29.1616 24.2702 29.083 24.1686C29.0043 24.0669 28.9059 23.9818 28.7935 23.9181C28.6811 23.8545 28.557 23.8137 28.4285 23.798C28.2999 23.7824 28.1695 23.7922 28.0449 23.827C27.9202 23.8617 27.8039 23.9207 27.7026 24.0005C27.6013 24.0802 27.5171 24.1791 27.4549 24.2914C27.3928 24.4037 27.354 24.5271 27.3407 24.6544C27.3274 24.7818 27.3399 24.9104 27.3776 25.0329C27.6682 26.0561 27.6742 27.1378 27.3948 28.1641C26.5486 31.2909 23.3293 33.1564 20.2169 32.3339C20.0728 32.2955 19.9216 32.2904 19.7751 32.3191C19.6286 32.3477 19.4908 32.4093 19.3723 32.4991C19.2538 32.5888 19.1578 32.7043 19.0917 32.8367C19.0256 32.969 18.9913 33.1146 18.9913 33.2621V33.3337C18.9914 33.468 19.02 33.6007 19.0752 33.7234L23.4443 43.4319C23.5212 43.6015 23.6462 43.7454 23.8041 43.8462C23.962 43.947 24.1462 44.0004 24.3342 44C24.4701 44.0002 24.6045 43.9719 24.7286 43.9171C24.8454 43.8658 24.9509 43.7924 25.0389 43.7009C25.127 43.6094 25.196 43.5016 25.2419 43.3838C25.2878 43.2659 25.3098 43.1402 25.3065 43.014C25.3033 42.8877 25.2749 42.7634 25.223 42.648L21.5368 34.446C21.5955 34.446 21.6518 34.446 21.7128 34.446C23.0608 34.4396 24.3845 34.0907 25.5566 33.4327C26.7287 32.7746 27.7098 31.8297 28.4055 30.6887C29.3275 30.9178 30.2751 31.0304 31.2258 31.0239C32.8504 31.0239 34.4244 30.4365 35.6041 29.6355C35.5351 31.5976 34.7751 32.7122 34.2244 33.5098C34.1484 33.6141 34.0944 33.7324 34.0655 33.8577C34.0366 33.983 34.0334 34.1127 34.0561 34.2392C34.0788 34.3657 34.127 34.4865 34.1978 34.5943C34.2685 34.7021 34.3604 34.7948 34.4681 34.8669C34.5757 34.939 34.6969 34.989 34.8244 35.0141C34.952 35.0391 35.0833 35.0386 35.2107 35.0126C35.338 34.9866 35.4588 34.9356 35.5659 34.8627C35.6729 34.7898 35.7641 34.6964 35.834 34.588C36.6067 33.4587 38.0427 31.3602 37.3747 27.3597V27.362Z" fill="white"/>
<defs>
<linearGradient id="paint0_linear_9815_258" x1="47.6805" y1="8.30129" x2="8.41484" y2="47.5669" gradientUnits="userSpaceOnUse">
<stop stop-color="#EE2A7B"/>
<stop offset="1" stop-color="#92278F"/>
</linearGradient>
</defs>
</svg>
