<svg width="56" height="56" viewBox="0 0 56 56" fill="none" xmlns="http://www.w3.org/2000/svg">
<path d="M28 56C43.464 56 56 43.464 56 28C56 12.536 43.464 0 28 0C12.536 0 0 12.536 0 28C0 43.464 12.536 56 28 56Z" fill="url(#paint0_linear_10378_98129)"/>
<path d="M32.4237 45H31.3826C30.9186 45 30.5225 44.6727 30.4433 44.21L29.0513 36.547C29.0286 36.4003 29.0286 36.2536 29.0739 36.1182L30.0359 32.7438C30.183 32.2359 30.7149 31.9425 31.2241 32.0892C31.7334 32.2359 32.0276 32.7664 31.8805 33.2742L30.9752 36.4342L32.1861 43.0927H32.4237C32.9556 43.0927 33.3857 43.5216 33.3857 44.052C33.3857 44.5824 32.9556 45 32.4237 45ZM27.3537 45H26.3126C25.792 45 25.3619 44.5824 25.3506 44.0633L25.1695 36.4003C25.1695 36.2988 25.1809 36.1972 25.2148 36.1069L26.8558 30.6334C26.901 30.4979 26.9576 30.3851 27.0482 30.2835C27.1161 30.1932 27.2066 30.1255 27.3198 30.0691C28.1912 29.5951 30.6017 28.1957 31.3713 27.3831C31.3939 27.3605 31.4165 27.338 31.4392 27.3154C31.541 27.2251 31.6655 27.1574 31.79 27.1122C31.9145 27.0671 32.0503 27.0558 32.1861 27.0784C32.22 27.0784 32.254 27.0897 32.2879 27.101C34.1779 27.496 35.7396 27.2138 37.0637 26.2432C40.2551 23.9071 40.8888 18.3771 40.9228 18.0724C40.9567 17.7226 41.1718 17.4066 41.5113 17.2712L44.9177 15.8717C44.7592 15.6009 44.4084 15.3075 43.6389 15.1833C43.6049 15.172 43.571 15.172 43.537 15.1607C42.2808 14.8109 40.7191 14.4159 40.4022 14.4046C39.7232 14.4046 39.2818 14.7319 39.1121 15.3752C38.9989 16.4022 38.0935 22.7786 34.2118 22.7786C31.8579 22.7786 31.1902 21.492 30.647 20.465C30.0924 19.4041 29.5718 18.3884 26.935 17.9596C26.6634 17.9144 26.4257 17.7564 26.2786 17.5307C25.758 16.7294 24.0378 14.6303 22.295 14.5739C21.3557 14.5513 20.439 15.1495 19.5676 16.3457C19.4432 16.515 19.3074 16.7069 19.1715 16.91C18.3454 18.095 17.225 19.7089 15.6746 20.7246C15.5841 20.7923 15.4596 20.86 15.3238 20.939C14.3958 21.4807 12.6303 22.5303 12.1098 24.5391C12.1098 24.5504 12.0984 24.573 12.0984 24.5843C12.0079 24.9341 11.9626 25.3291 11.9626 25.7354C11.9626 27.9361 14.6448 29.3807 15.4709 29.7757C15.9462 30.0014 16.1499 30.5769 15.9236 31.0509C15.6972 31.5249 15.1201 31.7281 14.6448 31.5024C14.0223 31.2089 12.8227 30.5656 11.8155 29.5612C11.7589 29.5048 11.7023 29.4484 11.6458 29.3919C11.6571 29.8659 11.6684 30.3512 11.691 30.8591C11.7589 32.3149 10.7404 33.9626 9.37104 34.6059C8.89573 34.8316 8.31856 34.6285 8.09223 34.1432C7.86589 33.6692 8.06959 33.0936 8.55622 32.8679C9.29182 32.5294 9.80109 31.5701 9.77845 30.9494C9.6766 28.9067 9.6766 26.074 10.2425 24.1215C10.9441 21.3114 13.3546 19.8781 14.3505 19.2913C14.4637 19.2236 14.5655 19.1671 14.6221 19.122C15.867 18.3094 16.8742 16.8649 17.5985 15.8153C17.7456 15.6009 17.8927 15.3977 18.0172 15.2172C19.2847 13.4679 20.7446 12.6102 22.3629 12.6553C23.7097 12.6892 25.0564 13.3663 26.3805 14.6529C26.9576 15.2172 27.399 15.7814 27.6593 16.1313C30.9073 16.7746 31.7447 18.3771 32.3671 19.5621C32.8538 20.4988 33.0348 20.8374 34.2231 20.8374C35.3322 20.8374 36.0791 19.4041 36.5092 18.1966C37.0297 16.7294 37.2221 15.2172 37.2334 15.0817C37.2334 15.0479 37.2448 15.014 37.2561 14.9689C37.2561 14.9576 37.2561 14.9576 37.2561 14.9463C37.3693 14.4723 37.5616 14.066 37.8219 13.7162C37.573 13.1293 37.4598 12.3506 37.9012 11.5155C38.1501 11.0528 38.7273 10.8609 39.1913 11.1092C39.6553 11.3575 39.8477 11.933 39.5987 12.3958C39.5647 12.4522 39.5421 12.5086 39.5308 12.565C39.8137 12.4973 40.1193 12.4522 40.4362 12.4522C41.0699 12.4522 43.1296 13.0052 44.035 13.2647C45.8909 13.592 47 14.7657 47 16.4134C47 16.7972 46.7623 17.147 46.4002 17.2937L42.7675 18.7834C42.5185 20.465 41.5226 25.3178 38.218 27.7442C36.5657 28.9518 34.6192 29.3807 32.3898 29.0308C31.3034 29.9675 29.4021 31.0848 28.5873 31.5362L27.1047 36.4906L27.2632 43.0702H27.365C27.8969 43.0702 28.327 43.499 28.327 44.0294C28.327 44.5599 27.8856 45 27.3537 45ZM20.2806 45H19.2394C18.8434 45 18.4925 44.763 18.3454 44.3906L15.3577 36.7389C15.2446 36.468 15.2785 36.152 15.4256 35.9038L18.2436 31.2315C18.5152 30.7801 19.1036 30.6334 19.5563 30.9042C20.009 31.1751 20.1561 31.7619 19.8845 32.2134L17.3042 36.4906L19.8845 43.0927H20.2693C20.8012 43.0927 21.2312 43.5216 21.2312 44.052C21.2312 44.5824 20.8125 45 20.2806 45ZM14.8371 45H13.796C13.332 45 12.9359 44.6727 12.8567 44.21L11.4307 36.1746C11.3855 35.9263 11.4421 35.6781 11.5779 35.4749L13.3094 32.9018C13.6036 32.4616 14.2034 32.3488 14.6334 32.6422C15.0748 32.9356 15.188 33.5338 14.8937 33.9626L13.3773 36.2198L14.5882 43.0927H14.8258C15.3577 43.0927 15.7878 43.5216 15.7878 44.052C15.7878 44.5824 15.369 45 14.8371 45ZM23.0985 30.1932C20.2919 30.1932 17.5532 29.2904 15.2785 27.6088C14.8485 27.2928 14.7692 26.6947 15.0748 26.2771C15.3917 25.8482 15.9915 25.7692 16.4102 26.074C18.5604 27.6652 21.1973 28.4327 23.8455 28.2634C24.3774 28.2295 24.83 28.6245 24.864 29.1549C24.8979 29.6854 24.5018 30.1368 23.9699 30.1707C23.687 30.1819 23.3928 30.1932 23.0985 30.1932ZM23.0533 26.8752C20.7672 26.8752 18.5152 26.074 16.7271 24.6068C16.3197 24.2683 16.2631 23.6701 16.6026 23.2638C16.9421 22.8576 17.5419 22.8011 17.9493 23.1397C19.6695 24.5617 21.8424 25.1937 24.0492 24.9003C25.8372 24.6745 27.4443 23.8733 28.7004 22.598C29.0739 22.2256 29.6737 22.2143 30.0585 22.5867C30.4319 22.9591 30.4433 23.5573 30.0698 23.941C28.5081 25.5323 26.5049 26.5141 24.2868 26.7962C23.8907 26.8527 23.472 26.8752 23.0533 26.8752ZM23.0646 23.7153C21.4576 23.7153 19.8958 23.1284 18.6736 22.0563C18.2775 21.7064 18.2436 21.1083 18.5944 20.702C18.9452 20.307 19.545 20.2731 19.9524 20.623C20.9709 21.5258 22.329 21.9434 23.6644 21.7741C24.615 21.65 25.4977 21.2437 26.2107 20.6004C26.6068 20.2506 27.2066 20.2731 27.5687 20.6681C27.9196 21.0631 27.8969 21.6613 27.5008 22.0224C26.4936 22.9253 25.2601 23.5008 23.9134 23.6701C23.6191 23.6927 23.3362 23.7153 23.0646 23.7153Z" fill="white"/>
<defs>
<linearGradient id="paint0_linear_10378_98129" x1="12.613" y1="41.0049" x2="48.3334" y2="10.8144" gradientUnits="userSpaceOnUse">
<stop stop-color="#FECE0D"/>
<stop offset="1" stop-color="#FCB310"/>
</linearGradient>
</defs>
</svg>
