<?xml version="1.0" encoding="utf-8"?>
<!-- Generator: Adobe Illustrator 25.4.1, SVG Export Plug-In . SVG Version: 6.00 Build 0)  -->
<svg version="1.1" id="Layer_1" xmlns="http://www.w3.org/2000/svg" xmlns:xlink="http://www.w3.org/1999/xlink" x="0px" y="0px"
	 viewBox="0 0 510 510" style="enable-background:new 0 0 510 510;" xml:space="preserve">
<style type="text/css">
	.st0{fill:url(#SVGID_1_);}
	.st1{fill:#FFFFFF;}
</style>
<g>
	
		<linearGradient id="SVGID_1_" gradientUnits="userSpaceOnUse" x1="-84.6451" y1="-53.2756" x2="542.9901" y2="519.8644" gradientTransform="matrix(1 0 0 -1 0 512)">
		<stop  offset="0.2359" style="stop-color:#E65370"/>
		<stop  offset="1" style="stop-color:#A378B5"/>
	</linearGradient>
	<path class="st0" d="M255,502.6c136.7,0,247.5-110.8,247.5-247.5S391.7,7.6,255,7.6S7.5,118.4,7.5,255.1S118.3,502.6,255,502.6z"/>
</g>
<g>
	<g>
		<path class="st1" d="M230.2,239.5c1.8-3.3,37.9-59.3,19-104.3c-18.2-43.2-71.8-28.5-87.4-21.4c-12.4,5.6-25.2,14.7-37.8,26.9
			c-21.4,20.7-35.4,43.8-35.6,44.1c-0.5,0.9-0.5,2.2,0.2,2.9c0.7,0.8,1.7,0.9,2.5,0.2c0.4-0.3,36.9-32.9,60.3-26.5
			c6.5,1.8,11.3,6.3,14.6,13.8c5.8,13.2-1.6,25-10.9,39.9c-14.4,23-64.8,63.7-14.5,140.8c33.7,51.6,105.2,52.8,113.8,52.8
			c4.2,0,6.8-0.3,7.1-0.3c1-0.1,1.7-1,1.7-2.2c0-1.1-0.6-2.1-1.6-2.3c-0.3-0.1-50.3-8.4-64.6-49.1c-5.1-14.6-3.6-30.6-2.5-40.2
			c1.6-13.4,6.2-25,11.9-35.3 M141.9,336.4c-14.4-33.8-15.9-50.5-3.6-79.3c12.3-28.8,49.2-69.5,37.3-95.3
			c-13.8-30-63.8,3.8-63.8,3.8s36.7-44.7,77.4-46.2c22.3-0.8,38.9,15.2,42.7,40.8c5.6,37.6-17.8,69-27,84.8
			c-15,25.7-20.9,50.2-22.1,72.5c-1.3,23.4,3.2,40.1,10.1,52.9c7.1,13.2,25.7,27.2,25.7,27.2S167.2,395.7,141.9,336.4z"/>
	</g>
	<path class="st1" d="M268.6,222.3c0.7-2,4.3-12,13.4-21.9c8.9-9.7,19.5-13.7,19.6-13.8c0.2-0.1,0.5,0,0.7,0.3
		c0.1,0.2,0.1,0.6-0.1,0.7c-0.1,0.1-12.9,11.9-17.7,20.5c-4.8,8.6-7.6,21.7-7.6,21.8c-0.1,0.3-0.3,0.5-0.5,0.5
		c0,0-20.8,4.6-35.5,14.5s-30.1,27.1-36.1,37.7c-6,10.6-5-3.7-5-3.7l6.3-16.5c0,0,14.7-18.7,30.5-29.7S268.6,222.3,268.6,222.3z"/>
	<path class="st1" d="M321.4,226.9c2.2-9.3,30.7,5.7,36.5,7.9c13.9,5.3,42.8,7.9,49.1,1.3c1.6-1.7-3-14.1-6.3-21
		c-9.2-19.5-25.2-34.4-34.7-41.3c-9.9-7.1-22.2-5.7-22.3-5.7c-0.3,0-0.5-0.1-0.7-0.4c0-0.1-4.4-9-13-21
		c-6.9-9.6-12.6-15.6-14.6-17.6c-1.1,4.2-4.6,20.1-2.6,33.9c2.4,15.9,5.2,20.7,5.2,20.8c0.1,0.2,0.1,0.6,0,0.8l-8.2,12.6
		c-0.1,0.2-0.3,0.3-0.6,0.3c-0.2,0-0.4-0.1-0.5-0.3c-0.2-0.4-4.9-8.9-4.5-34.6c0.4-20.6,6.2-36.1,9.3-41.4c0.1-0.2,0.3-0.3,0.5-0.3
		c0.2,0,0.4,0.1,0.5,0.2l33.6,40.3c2.1-0.3,12.8-1.2,24.3,8.1c35.6,28.8,40.7,67.1,39.5,69.5c-2.5,5-30.2,13.4-52.9,10.2
		C343.5,247.1,318.9,237.4,321.4,226.9z"/>
	<path class="st1" d="M360.8,197.4c5.5,1.8,10.9,2.3,7.4-4.2c-3.5-6.8-10-15.3-16.5-7.5C347.5,190.8,355.3,195.5,360.8,197.4z"/>
	<path class="st1" d="M360,385.5c-10.2-6.4-30.4-1.7-30.4-1.7s16-26.1,8-43.6c2.7-2,7-5.9,9.3-11.2c3.4-8.1-1.9-21.5-1.9-21.5
		s-1.5,9.9-6.3,16.9c-2.7,3.8-5.6,6.1-7.7,7.3c-13.8-10-39.4,1.8-48.4,6.6c-2.1,1.1-2.9,2.2-1.8,3.5c1,1.2,11.1-3.9,15.1-5.2
		c5.4-1.7,23.4-5.8,33.6,5.2c10.2,11.1-31.3,39.6-18.9,54.9c11.4,14,34.5-8.4,42.7-6c8.3,2.3,15.6,20.4,17.5,19.8
		C372.6,409.9,370.2,391.9,360,385.5z"/>
	<path class="st1" d="M403.2,297.9c-0.1,0-6.9,0.5-10.9,0c-1.5-0.2-1.8-0.6-2.4-1.3c-0.6-0.8-1.5-2-3.6-2.6c-1.2-0.4-2.9-0.4-5-0.4
		c-4.1-0.1-10.3-0.2-12.7-3.3c-1.2-1.5-1-3.7-0.6-7.1c0.5-4.5,1.1-10.1-3.7-14.5c-7.4-6.8-34-3.3-37-2.9c-0.9,0.1-3.7,0.5-3.7,1.7
		c0,2.3,2.7,2.7,3.7,2.8c10.8,1.9,28.8,5.5,31.2,7.2c0.6,0.6,0.6,4.3,0.6,6.5c0,6.1,0,14.4,5.6,18.3c6.2,4.3,11.5,2.8,15,1.8
		c1.2-0.3,2.4-0.7,3.1-0.6c1,0.2,1.5,0.6,2.3,1.3c1.1,1,2.4,2.3,5.2,2.6c0.2,0,0.5,0,0.7,0c4.7,0,12.3-4.7,13.2-5.2
		c0.8-0.5,2.8-2,2.8-3.1C407,297.7,404.1,297.9,403.2,297.9z"/>
</g>
</svg>
