<?xml version="1.0" encoding="utf-8"?>
<!-- Generator: Adobe Illustrator 24.2.1, SVG Export Plug-In . SVG Version: 6.00 Build 0)  -->
<svg version="1.1" xmlns="http://www.w3.org/2000/svg" xmlns:xlink="http://www.w3.org/1999/xlink" x="0px" y="0px"
	 viewBox="0 0 510 510" style="enable-background:new 0 0 510 510;" xml:space="preserve">
<style type="text/css">
	.st0{fill:url(#SVGID_1_);}
	.st1{fill:#FFFFFF;}
</style>
<g id="Layer_2">
	<g>
		
			<linearGradient id="SVGID_1_" gradientUnits="userSpaceOnUse" x1="7.5" y1="257" x2="502.5" y2="257" gradientTransform="matrix(1 0 0 -1 0 512)">
			<stop  offset="0" style="stop-color:#F7941D"/>
			<stop  offset="1" style="stop-color:#FBB040"/>
		</linearGradient>
		<path class="st0" d="M254.6,7.5C118.6,7.5,7.5,118.6,7.5,255.4c0,136,111.1,247.1,247.1,247.1s247.9-111.1,247.9-247.1
			C502.5,118.6,391.4,7.5,254.6,7.5z"/>
	</g>
</g>
<g id="Layer_1">
	<g>
		<path class="st1" d="M442.7,281.7c0.9,1.1,2.8,12.3,1.4,17.8c-1.4,5.5-4.2,6.8-6.3,5.5c-2.1-1.4-13.3-15.7-19.6-20.5
			c-6.3-4.8-14.3-8.9-14.7-8.2c-0.4,0.7,5.6,8.9,9.1,12.3c3.5,3.4,9.4,6.6,9.1,7.5s-9.1-0.7-27.4-13.7c-18.2-13-42.9-16.3-34.5-25.6
			c3.7-4.1,12.3-9.6,15.3-7.8c4.4,2.6,0.3,12.2,4.5,12.2c4.2,0,3.6-8.7,7.7-8.9c4.1-0.2,15.4,12.3,25.2,18.5
			C422.3,276.9,439.9,279,442.7,281.7"/>
		<path class="st1" d="M415.3,244.7c0.8-0.3,13.3,8.9,18.2,15.1c4.9,6.2,11.9,14.4,7,14.4c-4.9,0-14-4.1-16.1-8.2s-2.8-9.6-5.6-13
			C416,249.5,414.6,246.8,415.3,244.7"/>
		<path class="st1" d="M411.8,235.7c0,0-14-25.3-22.4-41.7c-8.4-16.4-24.3-44.7-33.7-48.3c-12.4-4.7-7.8-16.3-13.8-15.8
			c-10.3,0.8-20.8-0.8-25,1.3c-4.2,2.1-6.3,6-7.6,9.1c-1.3,3.3,2.5,6.3,1.8,10.4c-0.7,4.1-8,3.9-3.3,14.2c2.9,6.5,17.6-0.6,30.4,5.9
			c6.7,3.4,19.6,28,33.7,39c14,10.9,34.4,26.7,36.5,28C410.4,239.1,413.2,238.4,411.8,235.7"/>
		<path class="st1" d="M358.7,250.9c3.2-1.9,11.4-6.7,6.5-9.5c-4.9-2.7-20.2-14.6-22.3-16c-2.1-1.4-6.3-0.7-6.3,2.7
			c0,3.4,1.7,16,6.3,18.1C347.7,248.5,355.7,252.7,358.7,250.9z"/>
		<path class="st1" d="M314.8,218.7c-5.3-3.2-6-10-4.3-12.3c2.2-2.8,13.1,3.4,19.8,9.7C337,222.4,327.6,226.5,314.8,218.7z"/>
		<path class="st1" d="M367.9,272.6c-3.7,0-4.2,9.6,10.5,20.5c14.7,11,29.5,17.1,42.8,17.8c13.3,0.7,11.2-4.8,9.8-6.8
			c-1.4-2.1-14.7,0.7-28.1-3.4C389.7,296.6,371.6,272.6,367.9,272.6z"/>
		<path class="st1" d="M359.8,278.3c-1.7,3.1-13.6-3.7-19.3-6.6c-9.9-4.8-13.2-5.2-11.3-12.7c2.1-7.7,10.1-9.5,14.3-8.7
			c19.4,3.9,0.3,9.9,3,13.6C348.9,267.2,365.2,268.8,359.8,278.3z"/>
		<path class="st1" d="M331.2,243.2c4.2-2.3-2.9-14.6-10-17.9c-7.1-3.3-13.2-8.6-17-4.3c-3.8,4.3-3.5,7.7-0.8,10.3
			c2.7,2.6,12.9,8.9,17.1,10.4C324.8,243.2,327.5,245.2,331.2,243.2"/>
		<path class="st1" d="M320.7,246c0,0,6.6,7.4,3.6,13.5c-3,4-3.5,2.6-13.6-4.5c-8.1-5.3-11.4-10.4-6-12.5
			C310.1,240.3,317.1,241.7,320.7,246"/>
		<path class="st1" d="M284.4,221.5c-5.3,0-17.3,2.2-17.8,6.2c-0.4,3.4,4.3,5.5,17.5,6c4.5,0.2,8.5,8.5,12.9,7.7
			C303.9,240,294.5,221.5,284.4,221.5z"/>
		<path class="st1" d="M301.7,216.8c-12.5,1.4-16.6-14.1-11.2-15.2C296,200.6,309.5,214.2,301.7,216.8"/>
		<path class="st1" d="M300.7,181.4c-0.3,0,12.7-10.2,23.6-5.8c10.9,4.4,10.3,12.7,13.4,14.6c3.1,1.9,7.4,6.2,7.4,6.2
			s-12.6-2.2-16.7-1c-4.1,1.2-11.3,6-18.4-2.3C303,184.9,302,181.6,300.7,181.4"/>
		<path class="st1" d="M292.9,186.3c-0.8,4.7-23.6,5.4-16.9-2.9C282.7,175.1,293.8,180.8,292.9,186.3"/>
		<path class="st1" d="M290.8,164.5c2.7,2.2,10.2,3.2,7.3,5.4c-2.9,2.3-12.4,4.5-15.6,0c-3.2-4.5-0.9-11.8,3.7-11.8
			C290.8,158.2,289,163,290.8,164.5"/>
		<path class="st1" d="M303.1,151.7c-1.7,6.3-20.8,3.1-26.6-3.9c-5.8-7-2.8-9.3,1.1-13.6c2.6-2.8,17.1-4.7,18.7-2.3
			C300.2,137.6,303.7,149.3,303.1,151.7z"/>
		<path class="st1" d="M274.7,152.1c0,0-1.1,18.3-10.8,20.5c-9.7,2.1-11.4,4.2-15.8,0c-4.4-4.2-7.2-9.8-7.9-14.4
			c-0.7-4.5-0.2-9.9-3.5-14c-3.2-4.1-13.7-13.1-25.7-18.3c-12-5.2-27.1-10.6-27.1-10.6s26.6-3.8,41.9,4.5
			c15.3,8.4,25.7,17.6,29.9,20.3C260,142.8,273.3,143.2,274.7,152.1"/>
		<path class="st1" d="M238,168.8c-3.4,0-21.5-13.8-31-22.2c-9.5-8.4-18.1-24-18.1-24s16.2,4.5,26.2,11.1
			c10,6.6,18.5,10.7,19.7,17.4c1.2,6.7-0.5,4.1,0.8,8.9C236.7,164.8,241.4,168.8,238,168.8"/>
		<path class="st1" d="M280.4,200.7c-1.9-2.1-11,4.1-9.3,9.8c1.7,5.8,6,8.6,9.8,7.5c3.8-1.1,5.9-2.9,5-4.5c-0.9-1.5-4.1-1.5-5-4.6
			C280,205.9,282.6,203,280.4,200.7"/>
		<path class="st1" d="M268.1,187c-4.3-7.7-25,12.1-23.6,22.3c1.5,10.3,15,14.6,22,12.3c7-2.3-1.1-10.3-3.1-14.6
			C261.4,202.7,272.4,194.7,268.1,187z"/>
		<path class="st1" d="M237.5,215.1c6.2-4.2,3.2,7.9,6.7,12.9c3.5,5,13.9-4.1,16.7-0.5c3.3,4.2-9,13.8-13.1,16.5
			c-3.8,2.5-4.4-2.8-9.1-10.4C233.9,226.1,231.4,219.4,237.5,215.1z"/>
		<path class="st1" d="M221.4,196.6c-4.2-1.4-11.7,7.8-7.8,14.9c3.9,7,5.6,12.5,9.7,9.9c4.1-2.7,13.8-7.2,11-13.1
			C231.5,202.4,222.9,197.1,221.4,196.6"/>
		<path class="st1" d="M211.9,197.6c-7.3,15-0.3,17-9.6,27.2c-7.2,7.9-14.3,1.8-19.9-3.2c-4.2-3.7,3.7-15.6,15.4-27.3
			c11.7-11.7,22.5-23.7,28.4-21.6C232.1,174.8,219.1,182.6,211.9,197.6z"/>
		<path class="st1" d="M212.7,224.6c-6.4,0.1-16.7,12-14.1,18.4c2.6,6.3,22.3,26.1,26.8,24.4c7-2.6,13.5-10.6,15.5-18.7
			C242.6,242.2,224,224.4,212.7,224.6"/>
		<path class="st1" d="M127.9,360.6c-6.4,0.1-16.7,12-14.1,18.4c2.6,6.3,25.4,28.5,29.7,26.3c7.5-3.9,13.4-14.2,14.4-19.5
			C159.7,376.7,139.3,360.5,127.9,360.6"/>
		<path class="st1" d="M217.1,276c1.2,3.5-9.2,26.2-13.9,25.8c-4.7-0.4-23.6-12.4-24.9-19.3c-1.3-6.8,9.6-27.3,17.3-27.6
			C203.4,254.7,216.4,273.9,217.1,276"/>
		<path class="st1" d="M198.2,313.2c-0.4,4.3-5.5,17.6-11.4,19.8c-2.9,1.1-8.5-1.7-15.1-11.9c-6.6-10.2-9.2-23.4-3-27.8
			c4-2.8,17.2,5.7,21.8,10.2C195.4,308.2,198.6,309,198.2,313.2z"/>
		<path class="st1" d="M169.4,331.3c9.1,9.9,15.2,6.6,9.8,20.1c-3.5,8.7-10.6,24.7-16.2,25.3c-4.2,0.4-16.3-18.2-20.6-31.9
			c-3.8-13.5-1-29.3,6.5-29.3C153.9,315.5,160.3,321.3,169.4,331.3z"/>
		<path class="st1" d="M135.6,284.2c0,0-16.6,22.6-13.8,25.5c2.8,2.9,22.7,1.1,24.6-5.7c1.9-6.8,1.5-22.7-2.6-23.9
			S138.6,280.1,135.6,284.2"/>
		<path class="st1" d="M148.1,278.5c-3.2-6.3,1.6-15.1,4.9-21.2c3.2-6,17.1-27.4,21.3-29c4.2-1.6,11.6-0.9,14.4,4.3
			c2.8,5.2-14.6,32.8-19.2,40c-4.6,7.2-3.3,17-10.2,18.6C152.3,292.7,151.4,284.8,148.1,278.5z"/>
		<path class="st1" d="M104.8,369c-4.4-0.5-7.6-3.5-10.9-7.5c-4.5-5.5-1.7-9.6,1.5-15.6c3.2-6,17.1-27.4,21.3-29
			c4.2-1.6,11.6-0.9,14.4,4.3c2.8,5.2-12.1,28.8-16.7,36C109.7,364.4,109.2,369.5,104.8,369z"/>
	</g>
	<path class="st1" d="M319.3,124.9c1.4-0.7,2.5-24.2,2.5-36.3s-4-20.2-15.2-26.3c-11.1-6.1-24.8-1.8-24.3,8.6
		c0.5,10.4,13.4,14.9,13.7,22.4c0.2,7.5,2.5,17.9-0.9,23.1c-3.5,5.2-9.2,10.6-8.8,11.5c0.4,0.9,9.6-2.5,12.6,0
		c2.9,2.5,5.3,10.2,6.2,10.2s3.1-5.2,6.6-8.8C315,125.6,319.3,124.9,319.3,124.9"/>
	<path class="st1" d="M337.8,67.3c-4.8-8.4-15.8-3.3-19.6-1.2c6.9,5.6,9.5,12.8,9.5,22.5c0,10.7-2.5,35.9-1.8,36.8
		c0.7,0.8,15.7,0.5,16.4-0.2C342.9,124.6,343.6,77.5,337.8,67.3z"/>
	<path class="st1" d="M226.2,187.4c-0.3,4,8,11.6,13,10.5c5-1,14.3-10.5,12.1-13.5c-2.2-3-12.3-12.5-15.4-9.5
		C232.8,178,226.4,184.1,226.2,187.4z"/>
</g>
</svg>
