<?xml version="1.0" encoding="utf-8"?>
<!-- Generator: Adobe Illustrator 26.3.1, SVG Export Plug-In . SVG Version: 6.00 Build 0)  -->
<svg version="1.1" id="Layer_1" xmlns="http://www.w3.org/2000/svg" xmlns:xlink="http://www.w3.org/1999/xlink" x="0px" y="0px"
	 viewBox="0 0 376 117" style="enable-background:new 0 0 376 117;" xml:space="preserve">
<style type="text/css">
	.st0{fill:#303030;}
	.st1{opacity:0.4;}
	.st2{fill:url(#SVGID_1_);}
	.st3{fill:url(#SVGID_00000054983478687316269510000008883368084830312854_);}
	.st4{fill:url(#SVGID_00000180329776097356421110000013532086211841757356_);}
	.st5{fill:url(#SVGID_00000077326172142133118480000002614061330196228029_);}
	.st6{fill:url(#SVGID_00000036932789015093635800000011084565349143081139_);}
	.st7{fill:url(#SVGID_00000170275070526709800500000007179327592593623433_);}
	.st8{fill:url(#SVGID_00000077307466821153578920000015256318216466297783_);}
	.st9{fill:url(#SVGID_00000037694413705941367480000016923867906628723080_);}
	.st10{fill:url(#SVGID_00000087384429676092010090000006599523627310221722_);}
</style>
<g>
	<path class="st0" d="M164.5,26.4c4,0,7.4,0.5,10.1,1.5c2.7,1,4.9,2.4,6.6,4.2c1.6,1.8,2.8,4,3.5,6.6s1.1,5.4,1.1,8.5V79
		c-1.9,0.4-4.7,0.9-8.5,1.5s-8,0.9-12.8,0.9c-3.1,0-6-0.3-8.6-0.9s-4.8-1.6-6.7-2.9c-1.8-1.3-3.3-3.1-4.3-5.2s-1.6-4.8-1.6-7.9
		c0-3,0.6-5.5,1.8-7.6s2.8-3.8,4.8-5.1s4.3-2.2,7-2.8c2.6-0.6,5.4-0.9,8.3-0.9c1.3,0,2.7,0.1,4.2,0.3s3,0.5,4.7,0.9v-2
		c0-1.4-0.2-2.7-0.5-4s-0.9-2.4-1.8-3.4c-0.8-1-1.9-1.7-3.3-2.3c-1.4-0.5-3.1-0.8-5.2-0.8c-2.8,0-5.4,0.2-7.7,0.6
		c-2.3,0.4-4.2,0.9-5.7,1.4l-1.5-9.8c1.5-0.5,3.8-1.1,6.7-1.6C158,26.7,161.1,26.4,164.5,26.4z M165.5,71.6c3.7,0,6.6-0.2,8.5-0.6
		V57.6c-0.7-0.2-1.6-0.4-2.9-0.6c-1.3-0.2-2.7-0.3-4.2-0.3c-1.3,0-2.7,0.1-4.1,0.3c-1.4,0.2-2.6,0.6-3.7,1.1c-1.1,0.5-2,1.3-2.7,2.3
		s-1,2.2-1,3.7c0,2.9,0.9,4.9,2.7,6C160,71.1,162.4,71.6,165.5,71.6z"/>
	<path class="st0" d="M212.1,12.4c0,2.3-0.7,4.1-2.2,5.4s-3.2,2-5.2,2c-2.1,0-3.8-0.7-5.3-2s-2.2-3.1-2.2-5.4s0.7-4.2,2.2-5.5
		s3.2-2,5.3-2c2,0,3.7,0.7,5.2,2C211.4,8.2,212.1,10,212.1,12.4z M210.8,80.2h-12.1V27.7h12.1V80.2z"/>
	<path class="st0" d="M239.8,80.2c-3.4-6.9-6.8-14.8-10.3-23.7s-6.7-18.5-9.6-28.7h12.9c0.7,2.9,1.6,6.1,2.6,9.5s2,6.8,3.1,10.1
		c1.1,3.4,2.2,6.7,3.4,9.8c1.2,3.2,2.3,6,3.3,8.6c1-2.5,2.1-5.4,3.2-8.6c1.1-3.2,2.3-6.5,3.4-9.8c1.1-3.4,2.2-6.8,3.2-10.1
		c1-3.4,1.9-6.5,2.6-9.5h12.5c-2.9,10.2-6.1,19.8-9.6,28.7s-7,16.8-10.3,23.7H239.8z"/>
	<path class="st0" d="M272.9,54.2c0-4.6,0.7-8.7,2.1-12.1c1.4-3.5,3.2-6.4,5.5-8.7s4.9-4,7.8-5.2s5.9-1.8,9-1.8
		c7.2,0,12.9,2.2,16.9,6.7s6.1,11.2,6.1,20.1c0,0.7,0,1.4,0,2.3c0,0.8-0.1,1.6-0.2,2.3h-34.6c0.3,4.2,1.8,7.5,4.5,9.8
		c2.6,2.3,6.5,3.5,11.5,3.5c2.9,0,5.6-0.3,8.1-0.8c2.4-0.5,4.4-1.1,5.8-1.7l1.6,9.9c-0.7,0.3-1.6,0.7-2.8,1.1c-1.2,0.4-2.5,0.7-4,1
		s-3.1,0.6-4.9,0.8c-1.7,0.2-3.5,0.3-5.3,0.3c-4.6,0-8.6-0.7-12-2.1s-6.2-3.3-8.4-5.7c-2.2-2.4-3.8-5.3-4.9-8.6
		C273.4,61.8,272.9,58.1,272.9,54.2z M308.1,48.8c0-1.7-0.2-3.3-0.7-4.8s-1.2-2.8-2.1-3.9c-0.9-1.1-2-2-3.3-2.6s-2.9-1-4.7-1
		c-1.9,0-3.5,0.4-4.9,1.1c-1.4,0.7-2.6,1.6-3.6,2.8c-1,1.1-1.7,2.4-2.3,3.9c-0.5,1.5-0.9,3-1.1,4.5H308.1z"/>
	<path class="st0" d="M331.1,29.4c2.3-0.7,5.4-1.3,9.1-1.9s7.9-0.9,12.4-0.9c4.3,0,7.9,0.6,10.7,1.8c2.9,1.2,5.2,2.8,6.9,4.9
		c1.7,2.1,2.9,4.6,3.6,7.6s1.1,6.2,1.1,9.8v29.5h-12.1V52.6c0-2.8-0.2-5.2-0.6-7.2s-1-3.6-1.8-4.8s-2-2.1-3.4-2.7
		c-1.4-0.6-3.2-0.9-5.3-0.9c-1.5,0-3.1,0.1-4.8,0.3c-1.7,0.2-2.9,0.4-3.7,0.5v42.3h-12.1L331.1,29.4L331.1,29.4z"/>
</g>
<g class="st1">
	<path class="st0" d="M199.4,114.8V95.1h5.2c3,0,5.3,0.8,7,2.4s2.5,4.1,2.5,7.3c0,1.6-0.2,3.1-0.6,4.3c-0.4,1.2-1,2.3-1.9,3.1
		c-0.8,0.8-1.8,1.5-2.9,1.9c-1.2,0.4-2.5,0.6-3.9,0.6L199.4,114.8L199.4,114.8z M202.9,111.9h1.5c2,0,3.5-0.6,4.6-1.7
		c1.1-1.2,1.6-2.9,1.6-5.4c0-2.4-0.5-4.1-1.6-5.2s-2.6-1.6-4.6-1.6h-1.5V111.9z"/>
	<path class="st0" d="M221.3,114.8V95.1h11.8V98h-8.3v5h7.1v2.9h-7.1v5.8h8.6v2.9h-12.1V114.8z"/>
	<path class="st0" d="M244.1,114.8L238,95.2h3.7l2.8,9.9c0.3,1.1,0.6,2.2,0.9,3.2c0.2,1,0.5,2.1,0.9,3.2h0.1
		c0.3-1.1,0.6-2.2,0.9-3.2c0.2-1,0.5-2.1,0.8-3.2l2.7-9.9h3.6l-6.1,19.6C248.3,114.8,244.1,114.8,244.1,114.8z"/>
	<path class="st0" d="M259.8,114.8V95.1h11.8V98h-8.3v5h7v2.9h-7v5.8h8.6v2.9h-12.1V114.8z"/>
	<path class="st0" d="M279.1,114.8V95.1h3.5v16.7h8.2v2.9L279.1,114.8L279.1,114.8z"/>
	<path class="st0" d="M304,115.1c-1.3,0-2.5-0.2-3.5-0.7c-1.1-0.5-2-1.2-2.7-2s-1.3-2-1.8-3.2c-0.4-1.3-0.6-2.7-0.6-4.3
		c0-1.6,0.2-3,0.6-4.2s1-2.3,1.8-3.2c0.8-0.9,1.7-1.5,2.7-2c1.1-0.5,2.2-0.7,3.5-0.7s2.4,0.2,3.5,0.7s2,1.1,2.7,2
		c0.8,0.9,1.4,1.9,1.8,3.2s0.6,2.7,0.6,4.2c0,1.6-0.2,3-0.6,4.3s-1,2.3-1.8,3.2c-0.8,0.9-1.7,1.6-2.7,2S305.3,115.1,304,115.1z
		 M304,112.1c0.8,0,1.5-0.2,2.1-0.5s1.2-0.8,1.6-1.5c0.4-0.6,0.8-1.4,1-2.3s0.4-1.9,0.4-3c0-2.2-0.5-3.9-1.4-5.2
		c-0.9-1.2-2.1-1.9-3.7-1.9s-2.8,0.6-3.7,1.9c-0.9,1.2-1.4,3-1.4,5.2c0,1.1,0.1,2.1,0.4,3c0.2,0.9,0.6,1.7,1,2.3
		c0.4,0.6,1,1.1,1.6,1.5C302.5,111.9,303.2,112.1,304,112.1z"/>
	<path class="st0" d="M319.7,114.8V95.1h6.2c1.1,0,2.1,0.1,3,0.3c0.9,0.2,1.7,0.5,2.4,1c0.7,0.5,1.2,1.1,1.6,1.9s0.6,1.7,0.6,2.9
		c0,1.1-0.2,2-0.6,2.8s-0.9,1.5-1.6,2s-1.5,0.9-2.4,1.2c-0.9,0.3-1.9,0.4-3,0.4h-2.8v7.2H319.7z M323.2,104.8h2.5
		c2.9,0,4.3-1.2,4.3-3.6c0-1.2-0.4-2.1-1.1-2.6s-1.9-0.7-3.3-0.7h-2.4V104.8z"/>
	<path class="st0" d="M340.3,114.8V95.1h11.8V98h-8.3v5h7v2.9h-7v5.8h8.6v2.9h-12.1V114.8z"/>
	<path class="st0" d="M359.6,114.8V95.1h6.6c1,0,2,0.1,2.9,0.3c0.9,0.2,1.6,0.5,2.3,1c0.6,0.5,1.1,1,1.5,1.8
		c0.4,0.7,0.6,1.7,0.6,2.8c0,1.5-0.4,2.7-1.1,3.6s-1.7,1.6-2.8,2l4.7,8.2h-3.9l-4.2-7.7h-3v7.7H359.6z M363.1,104.3h2.8
		c1.3,0,2.4-0.3,3.1-0.8c0.7-0.6,1.1-1.4,1.1-2.5s-0.4-1.9-1.1-2.4c-0.7-0.4-1.7-0.7-3.1-0.7h-2.8V104.3z"/>
</g>
<g>
	
		<linearGradient id="SVGID_1_" gradientUnits="userSpaceOnUse" x1="39.9136" y1="27.9893" x2="73.9813" y2="99.6735" gradientTransform="matrix(1 0 0 -1 0 118)">
		<stop  offset="0" style="stop-color:#EC1E27"/>
		<stop  offset="0.2" style="stop-color:#F05A26"/>
		<stop  offset="0.4" style="stop-color:#FAAF3A"/>
		<stop  offset="0.6" style="stop-color:#8BC540"/>
		<stop  offset="0.8" style="stop-color:#28AAE1"/>
		<stop  offset="1" style="stop-color:#EC1E79"/>
	</linearGradient>
	<path class="st2" d="M88.4,63.2c2,0,3.9,0.4,5.7,1c2.8-3.2,4.3-6.8,4.3-10.5c0-6-4.1-11.8-11.5-16.3c-7.9-4.8-18.5-7.5-29.8-7.5
		l0,0c-11.3,0-21.9,2.7-29.8,7.5C20,41.9,15.9,47.7,15.9,53.7c0,3.6,1.5,7.2,4.3,10.5c1.8-0.7,3.7-1,5.7-1c4.4,0,8.6,1.7,11.8,4.9
		c2.2,2.2,3.7,4.9,4.4,7.8c4.7,1.1,9.8,1.7,15.1,1.7s10.3-0.6,15.1-1.7c0.7-2.9,2.2-5.6,4.4-7.8C79.8,64.9,83.9,63.2,88.4,63.2z
		 M57.2,49.3c-5.1,0-9.2-4.1-9.2-9.2h18.5C66.4,45.2,62.2,49.3,57.2,49.3z"/>
	
		<linearGradient id="SVGID_00000029043856012734216690000004873708941933501346_" gradientUnits="userSpaceOnUse" x1="0.3524" y1="46.7906" x2="34.4202" y2="118.4748" gradientTransform="matrix(1 0 0 -1 0 118)">
		<stop  offset="0" style="stop-color:#EC1E27"/>
		<stop  offset="0.2" style="stop-color:#F05A26"/>
		<stop  offset="0.4" style="stop-color:#FAAF3A"/>
		<stop  offset="0.6" style="stop-color:#8BC540"/>
		<stop  offset="0.8" style="stop-color:#28AAE1"/>
		<stop  offset="1" style="stop-color:#EC1E79"/>
	</linearGradient>
	<path style="fill:url(#SVGID_00000029043856012734216690000004873708941933501346_);" d="M25.1,33c0.9-0.5,1.8-1,2.8-1.5l0,0
		c-2.3-1.8-5.1-2.6-7.8-2.6c-4,0-7.9,1.8-10.4,5.2l-1.1,1.5l7.4,5.5C18.2,38.1,21.3,35.4,25.1,33z"/>
	
		<linearGradient id="SVGID_00000152260875652058178990000003106669424939668130_" gradientUnits="userSpaceOnUse" x1="2.4954" y1="45.7721" x2="36.5632" y2="117.4564" gradientTransform="matrix(1 0 0 -1 0 118)">
		<stop  offset="0" style="stop-color:#EC1E27"/>
		<stop  offset="0.2" style="stop-color:#F05A26"/>
		<stop  offset="0.4" style="stop-color:#FAAF3A"/>
		<stop  offset="0.6" style="stop-color:#8BC540"/>
		<stop  offset="0.8" style="stop-color:#28AAE1"/>
		<stop  offset="1" style="stop-color:#EC1E79"/>
	</linearGradient>
	<path style="fill:url(#SVGID_00000152260875652058178990000003106669424939668130_);" d="M16,66.5c-2.5-3.2-4-6.6-4.5-10.2
		c-0.1-0.8-0.2-1.7-0.2-2.5c0-4.2,1.4-8.3,4.1-12h-1c-7.2,0-13,5.8-13,13v1.8h9.7c-2.5,2.1-4.2,5-4.6,8.3c-0.5,3.4,0.4,6.9,2.6,9.6
		l0.8,1.1c0.7-2.8,2.2-5.4,4.3-7.5C14.7,67.5,15.4,67,16,66.5z"/>
	
		<linearGradient id="SVGID_00000019673729877166515840000004683877860435574148_" gradientUnits="userSpaceOnUse" x1="63.8608" y1="16.6083" x2="97.9286" y2="88.2925" gradientTransform="matrix(1 0 0 -1 0 118)">
		<stop  offset="0" style="stop-color:#EC1E27"/>
		<stop  offset="0.2" style="stop-color:#F05A26"/>
		<stop  offset="0.4" style="stop-color:#FAAF3A"/>
		<stop  offset="0.6" style="stop-color:#8BC540"/>
		<stop  offset="0.8" style="stop-color:#28AAE1"/>
		<stop  offset="1" style="stop-color:#EC1E79"/>
	</linearGradient>
	<path style="fill:url(#SVGID_00000019673729877166515840000004683877860435574148_);" d="M98.4,41l7.4-5.5l-1.1-1.5
		c-2.6-3.4-6.5-5.2-10.4-5.2c-2.7,0-5.5,0.8-7.8,2.6l0,0c0.9,0.5,1.9,1,2.8,1.5C93,35.4,96.1,38.1,98.4,41z"/>
	
		<linearGradient id="SVGID_00000067946600066728016600000003432424478279823284_" gradientUnits="userSpaceOnUse" x1="78.3535" y1="9.7208" x2="112.4213" y2="81.405" gradientTransform="matrix(1 0 0 -1 0 118)">
		<stop  offset="0" style="stop-color:#EC1E27"/>
		<stop  offset="0.2" style="stop-color:#F05A26"/>
		<stop  offset="0.4" style="stop-color:#FAAF3A"/>
		<stop  offset="0.6" style="stop-color:#8BC540"/>
		<stop  offset="0.8" style="stop-color:#28AAE1"/>
		<stop  offset="1" style="stop-color:#EC1E79"/>
	</linearGradient>
	<path style="fill:url(#SVGID_00000067946600066728016600000003432424478279823284_);" d="M112.9,54.8c0-7.2-5.8-13-13-13h-1
		c2.7,3.7,4.1,7.7,4.1,12c0,0.9-0.1,1.7-0.2,2.5c-0.5,3.6-2,7.1-4.5,10.2c0.6,0.5,1.2,1,1.8,1.5c2.1,2.1,3.6,4.7,4.3,7.5l0.8-1.1
		c2.1-2.8,3-6.2,2.6-9.6c-0.4-3.3-2.1-6.2-4.6-8.3h9.7C112.9,56.5,112.9,54.8,112.9,54.8z"/>
	
		<linearGradient id="SVGID_00000181801015115427554080000010234039403719016849_" gradientUnits="userSpaceOnUse" x1="11.7008" y1="41.3973" x2="45.7684" y2="113.0815" gradientTransform="matrix(1 0 0 -1 0 118)">
		<stop  offset="0" style="stop-color:#EC1E27"/>
		<stop  offset="0.2" style="stop-color:#F05A26"/>
		<stop  offset="0.4" style="stop-color:#FAAF3A"/>
		<stop  offset="0.6" style="stop-color:#8BC540"/>
		<stop  offset="0.8" style="stop-color:#28AAE1"/>
		<stop  offset="1" style="stop-color:#EC1E79"/>
	</linearGradient>
	<path style="fill:url(#SVGID_00000181801015115427554080000010234039403719016849_);" d="M41.5,26.9c7.2,0,13-5.8,13-13
		s-5.8-13-13-13s-13,5.8-13,13S34.3,26.9,41.5,26.9z M41.5,6.8L41.5,6.8C40.6,7.7,40,9,40,10.4c0,2.8,2.2,5,5,5
		c1.4,0,2.7-0.6,3.6-1.5c0,0,0,0,0,0.1c0,3.9-3.2,7.1-7.1,7.1s-7.1-3.2-7.1-7.1C34.4,10,37.6,6.8,41.5,6.8z"/>
	
		<linearGradient id="SVGID_00000147211257573941351290000011928686501619165076_" gradientUnits="userSpaceOnUse" x1="37.2338" y1="29.2628" x2="71.3015" y2="100.947" gradientTransform="matrix(1 0 0 -1 0 118)">
		<stop  offset="0.2" style="stop-color:#F05A26"/>
		<stop  offset="0.4" style="stop-color:#FAAF3A"/>
		<stop  offset="0.6" style="stop-color:#8BC540"/>
		<stop  offset="0.8" style="stop-color:#28AAE1"/>
		<stop  offset="1" style="stop-color:#EC1E79"/>
	</linearGradient>
	<path style="fill:url(#SVGID_00000147211257573941351290000011928686501619165076_);" d="M72.8,26.9c7.2,0,13-5.8,13-13
		s-5.8-13-13-13s-13,5.8-13,13C59.8,21.1,65.6,26.9,72.8,26.9z M72.8,6.8L72.8,6.8c-0.9,0.9-1.4,2.2-1.4,3.6c0,2.8,2.2,5,5,5
		c1.4,0,2.7-0.6,3.6-1.5c0,0,0,0,0,0.1c0,3.9-3.2,7.1-7.1,7.1s-7.1-3.2-7.1-7.1C65.7,10,68.9,6.8,72.8,6.8z"/>
	
		<linearGradient id="SVGID_00000165933110211703316920000006203880379841392275_" gradientUnits="userSpaceOnUse" x1="24.4772" y1="35.3253" x2="58.5449" y2="107.0095" gradientTransform="matrix(1 0 0 -1 0 118)">
		<stop  offset="0" style="stop-color:#EC1E27"/>
		<stop  offset="0.2" style="stop-color:#F05A26"/>
		<stop  offset="0.4" style="stop-color:#FAAF3A"/>
		<stop  offset="0.6" style="stop-color:#8BC540"/>
		<stop  offset="0.8" style="stop-color:#28AAE1"/>
		<stop  offset="1" style="stop-color:#EC1E79"/>
	</linearGradient>
	<path style="fill:url(#SVGID_00000165933110211703316920000006203880379841392275_);" d="M25.9,66.8c-7.2,0-13,5.8-13,13
		s5.8,13,13,13c1.5,0,3-0.3,4.3-0.7c-0.1-0.1-0.2-0.2-0.4-0.3C26,88,24.7,83.2,27,81c2.2-2.2,7.1-0.9,10.8,2.8
		c0.1,0.1,0.2,0.2,0.3,0.4c0.5-1.3,0.7-2.8,0.7-4.3C38.9,72.6,33.1,66.8,25.9,66.8z"/>
	
		<linearGradient id="SVGID_00000090295148540910359750000010016488348203249308_" gradientUnits="userSpaceOnUse" x1="75.4478" y1="11.1017" x2="109.5156" y2="82.7859" gradientTransform="matrix(1 0 0 -1 0 118)">
		<stop  offset="0" style="stop-color:#EC1E27"/>
		<stop  offset="0.2" style="stop-color:#F05A26"/>
		<stop  offset="0.4" style="stop-color:#FAAF3A"/>
		<stop  offset="0.6" style="stop-color:#8BC540"/>
		<stop  offset="0.8" style="stop-color:#28AAE1"/>
		<stop  offset="1" style="stop-color:#EC1E79"/>
	</linearGradient>
	<path style="fill:url(#SVGID_00000090295148540910359750000010016488348203249308_);" d="M88.4,66.8c-7.2,0-13,5.8-13,13
		c0,1.5,0.3,3,0.7,4.3c0.1-0.1,0.2-0.3,0.3-0.4c3.8-3.8,8.6-5.1,10.8-2.8c2.2,2.2,0.9,7.1-2.8,10.8c-0.1,0.1-0.2,0.2-0.4,0.3
		c1.3,0.5,2.8,0.7,4.3,0.7c7.2,0,13-5.8,13-13C101.4,72.6,95.6,66.8,88.4,66.8z"/>
</g>
</svg>
